<?xml version="1.0" encoding="UTF-8" standalone="no"?>
<!-- Created with Inkscape (http://www.inkscape.org/) -->

<svg
   xmlns:dc="http://purl.org/dc/elements/1.1/"
   xmlns:cc="http://creativecommons.org/ns#"
   xmlns:rdf="http://www.w3.org/1999/02/22-rdf-syntax-ns#"
   xmlns:svg="http://www.w3.org/2000/svg"
   xmlns="http://www.w3.org/2000/svg"
   xmlns:sodipodi="http://sodipodi.sourceforge.net/DTD/sodipodi-0.dtd"
   xmlns:inkscape="http://www.inkscape.org/namespaces/inkscape"
   width="629.34113"
   height="233.88704"
   id="svg2"
   version="1.1"
   inkscape:version="0.48.4 r9939"
   sodipodi:docname="bojack-horseman-logo.svg">
  <defs
     id="defs4" />
  <sodipodi:namedview
     id="base"
     pagecolor="#ffffff"
     bordercolor="#666666"
     borderopacity="1.0"
     inkscape:pageopacity="0.0"
     inkscape:pageshadow="2"
     inkscape:zoom="1.979899"
     inkscape:cx="347.16256"
     inkscape:cy="224.89307"
     inkscape:document-units="px"
     inkscape:current-layer="layer1"
     showgrid="false"
     inkscape:window-width="2495"
     inkscape:window-height="1416"
     inkscape:window-x="1985"
     inkscape:window-y="24"
     inkscape:window-maximized="1"
     showguides="true"
     inkscape:guide-bbox="true"
     fit-margin-top="0"
     fit-margin-left="0"
     fit-margin-right="0"
     fit-margin-bottom="0" />
  <metadata
     id="metadata7">
    <rdf:RDF>
      <cc:Work
         rdf:about="">
        <dc:format>image/svg+xml</dc:format>
        <dc:type
           rdf:resource="http://purl.org/dc/dcmitype/StillImage" />
        <dc:title></dc:title>
      </cc:Work>
    </rdf:RDF>
  </metadata>
  <g
     inkscape:label="text"
     inkscape:groupmode="layer"
     id="layer1"
     style="display:inline"
     transform="translate(-73.048558,-170.81723)">
    <path
       sodipodi:nodetypes="sccsssssssssssssscscssssssssssssssscsscsssssssssss"
       inkscape:connector-curvature="0"
       id="path3865"
       d="m 148.75347,180.77236 c -4.70563,0.0358 -9.41927,0.51322 -14.125,0.53125 -3.93035,0.0151 -7.85093,-0.322 -11.78125,-0.34375 -3.09576,-0.0171 -6.25273,-0.45445 -9.28125,0.1875 -2.40088,0.50891 -4.24205,1.7834 -6.24554,3.20089 -0.72237,0.51108 -1.6102,1.10055 -1.78125,1.96875 -0.26934,1.36714 1.12178,2.57343 1.40625,3.9375 1.94809,9.34142 0.77486,18.67618 1.27679,28.20536 0.21937,4.16472 0.14659,8.34728 0.53125,12.5 0.27174,2.93372 0.92455,5.82175 1.25,8.75 0.74534,6.7062 0.0278,13.62424 1.59375,20.1875 0.91071,3.81692 1.03411,8.17897 4.46875,10.875 3.28905,2.58174 18.34257,1.63847 27.5,1.09375 7.94191,-0.47242 16.12939,-0.91345 23.5625,-3.75 5.55342,-2.11924 10.56637,-5.69714 15,-9.65625 2.17734,-1.94431 4.65904,-3.99551 5.53125,-6.78125 2.06933,-6.60914 1.29872,-15.45108 -1.59375,-20.71875 -1.89947,-3.45925 -6.92293,-5.44347 -8.03125,-8.5625 1.8354,-2.91187 8.84184,-6.57983 11.0625,-11.78125 0.88997,-2.08457 1.56738,-5.20235 1.625,-7.875 0.0974,-4.52002 0.0116,-9.40758 -2.15625,-13.375 -1.79904,-3.29243 -4.93233,-6.08278 -8.40625,-7.5 -4.85503,-1.98066 -10.44704,-0.54012 -15.6875,-0.71875 -5.23641,-0.17849 -10.47945,-0.4149 -15.71875,-0.375 z m 7.5625,15.5625 c 3.86473,-0.0157 7.70979,0.13166 11.53125,0.6875 3.37402,0.49076 7.9008,0.0518 9.8125,2.875 1.37486,2.03036 0.34545,5.08863 -0.6875,7.3125 -1.36537,2.93956 -3.95775,5.43393 -6.8125,6.96875 -3.36229,1.80769 -7.45866,1.67949 -11.25,2.125 -9.05437,1.06395 -18.19743,1.42057 -27.3125,1.25 -4.29982,-0.0805 -11.37539,1.05067 -12.84375,-1.0625 -1.6054,-2.3104 -1.1703,-6.51325 -1.25,-9.8125 -0.0736,-3.04415 -0.39894,-7.08371 0.71875,-9.125 0.7766,-1.41835 4.60694,-0.56829 6.9375,-0.6875 3.92344,-0.20067 7.88395,-0.0113 11.8125,0 6.43609,0.0186 12.90254,-0.50509 19.34375,-0.53125 z m -32.5,34.96875 c 1.67393,-0.0128 3.86865,0.19813 5.46875,0.1875 5.95255,-0.0394 11.89405,-8.1e-4 17.84375,0.1875 4.46839,0.14144 9.01399,-0.11466 13.40625,0.71875 2.9589,0.56144 5.97458,1.30331 8.5625,2.84375 2.17125,1.29242 4.55255,2.85796 5.53125,5.1875 0.99165,2.36037 1.07797,5.44442 -0.15625,7.6875 -2.06923,3.76063 -6.70723,5.59799 -10.71875,7.125 -3.20197,1.21886 -6.76971,1.19883 -10.1875,1.4375 -10.03508,0.70079 -29.09797,1.80213 -30.1875,0 -0.90332,-1.49412 -0.76117,-8.45696 -1.0625,-12.6875 -0.29229,-4.10364 -2.24067,-11.22822 -0.71875,-12.3125 0.38874,-0.27695 1.21439,-0.36734 2.21875,-0.375 z"
       style="fill:#000000;fill-opacity:1;stroke:#000000;stroke-width:4;stroke-linecap:butt;stroke-linejoin:miter;stroke-miterlimit:4;stroke-opacity:1;stroke-dasharray:none" />
    <path
       sodipodi:nodetypes="sssssssssssssssssaaaaaaaaaaaaaa"
       inkscape:connector-curvature="0"
       id="path3867"
       d="m 240.94097,201.08486 c -2.39969,0.0837 -4.81652,0.37607 -7.1875,0.59375 -1.62762,0.14944 -3.32138,0.28012 -4.84375,0.875 -5.30675,2.07367 -10.27631,5.23318 -14.4375,9.125 -3.5478,3.31814 -6.81583,7.26064 -8.59375,11.78125 -1.44839,3.68274 -1.12702,7.83379 -1.40625,11.78125 -0.40749,5.76064 -1.44339,11.63715 -0.375,17.3125 0.83437,4.43223 2.42219,8.93715 5.1875,12.5 3.28467,4.23201 7.86682,7.67405 12.84375,9.65625 6.29003,2.50518 13.51983,3.48833 20.1875,2.3125 5.24307,-0.9246 9.84593,-4.18007 14.28125,-7.125 5.94336,-3.94625 12.66917,-7.76708 16.25,-13.9375 2.22074,-3.82673 2.31854,-8.61055 2.5,-13.03125 0.25046,-6.10149 0.10437,-12.47478 -1.96875,-18.21875 -2.0849,-5.77662 -5.56725,-11.26242 -10.15625,-15.34375 -4.23686,-3.76815 -9.67216,-6.37183 -15.1875,-7.6875 -2.31597,-0.55247 -4.69406,-0.67745 -7.09375,-0.59375 z m -6.34375,17.60714 c 4.95803,0.17137 9.97839,-0.31 14.875,0.48661 1.22311,0.19898 2.49423,0.4345 3.5625,1.0625 3.08622,1.81429 5.77988,4.47058 7.6875,7.5 1.97466,3.1359 3.43735,6.82753 3.5625,10.53125 0.14993,4.43679 -1.09676,9.08372 -3.40625,12.875 -2.21379,3.63418 -5.5579,6.88517 -9.46875,8.5625 -5.86585,2.51582 -12.7854,2.40822 -19.09375,1.4375 -4.43543,-0.68252 -9.47472,-1.6854 -12.5,-5 -2.80614,-3.0745 -2.96248,-7.84966 -3.5625,-11.96875 -0.56607,-3.88607 -0.96037,-7.97341 0,-11.78125 1.00983,-4.00394 2.90804,-8.03423 5.875,-10.90625 1.63007,-1.57791 3.87614,-2.55256 6.09375,-3.03125 2.07853,-0.44867 4.24986,0.15869 6.375,0.23214 z"
       style="fill:#000000;fill-opacity:1;stroke:#000000;stroke-width:4;stroke-linecap:butt;stroke-linejoin:miter;stroke-miterlimit:4;stroke-opacity:1;stroke-dasharray:none" />
    <path
       sodipodi:nodetypes="saaaaaaaaaaaaaaaaaaaaas"
       inkscape:connector-curvature="0"
       id="path3869"
       d="m 291.95883,244.53187 c 1.42404,-1.94494 3.75473,-4.59458 6.07142,-3.92857 2.84082,0.81668 2.2946,5.46295 3.75,8.0357 1.62574,2.87386 3.29213,5.79182 5.53572,8.21429 2.47617,2.67359 5.06108,5.80749 8.57143,6.78572 4.10365,1.14356 9.0188,0.57317 12.67857,-1.60715 2.89499,-1.7247 4.72306,-5.05404 5.89286,-8.21428 1.90818,-5.15502 1.46075,-10.93181 1.42857,-16.42857 -0.0567,-9.68961 -1.85119,-19.29116 -2.85714,-28.92858 -0.62168,-5.95593 -1.63642,-11.87784 -1.96429,-17.85714 -0.14014,-2.55568 -1.34562,-5.50131 0,-7.67857 1.32951,-2.1512 4.28014,-3.73547 6.78571,-3.39287 1.67016,0.22838 2.92574,1.92244 3.75001,3.39286 1.56984,2.80044 1.35601,6.28275 1.78571,9.4643 1.16709,8.64132 1.25248,17.39722 2.14286,26.07142 0.84511,8.23312 2.93006,16.36716 3.03571,24.64286 0.0863,6.75743 1.2118,14.21344 -1.96429,20.17857 -3.29888,6.19577 -9.87856,10.44754 -16.24999,13.39286 -4.61034,2.13121 -9.97743,3.43415 -15.00001,2.67857 -4.50165,-0.67721 -8.39958,-3.65936 -12.14285,-6.25 -2.77222,-1.9186 -5.53454,-4.04652 -7.5,-6.78571 -2.00489,-2.79414 -3.45688,-6.08731 -4.10714,-9.46429 -0.77693,-4.03474 -1.47994,-9.81236 0.35714,-12.32142 z"
       style="fill:#000000;fill-opacity:1;stroke:#000000;stroke-width:4;stroke-linecap:butt;stroke-linejoin:miter;stroke-miterlimit:4;stroke-opacity:1;stroke-dasharray:none" />
    <path
       inkscape:connector-curvature="0"
       id="path3871"
       d="m 408.56597,182.80361 c -0.88337,-0.0345 -1.78007,0.0257 -2.625,0.1875 -7.65458,1.46573 -14.05873,7.51518 -19.125,13.4375 -5.56808,6.50891 -8.76374,14.8947 -11.34375,23.0625 -2.76554,8.75515 -3.4146,18.07529 -4.25,27.21875 -0.65707,7.19166 -2.40484,14.66543 -0.59375,21.65625 0.73421,2.83407 1.76029,6.4511 4.46875,7.5625 0.96741,0.39697 2.1803,-0.25107 3.0625,-0.8125 1.61548,-1.02808 2.9134,-2.64134 3.65625,-4.40625 1.84613,-4.38619 1.01026,-9.44784 1.4375,-14.1875 0.49848,-5.53008 -0.28958,-15.41793 1.3125,-16.625 1.04372,-0.78639 2.51676,-0.8302 3.8125,-1 5.25834,-0.68908 10.60617,-0.18466 15.90625,0 7.25263,0.2527 21.3307,-0.1941 21.71875,1.5 1.10853,4.83948 0.54239,14.17157 2,21.0625 1.02387,4.8404 0.16694,12.05192 4.6875,14.0625 1.92046,0.85415 4.51307,-0.8551 5.78125,-2.53125 2.12327,-2.80632 1.3788,-6.91894 1.4375,-10.4375 0.14005,-8.39783 -0.93685,-16.82856 -2.59375,-25.0625 -2.27055,-11.28344 -6.07383,-21.99409 -10,-33.0625 -2.46839,-6.95875 -5.36441,-14.65661 -11.3125,-19.03125 -2.07908,-1.5291 -4.78738,-2.49038 -7.4375,-2.59375 z m -3.40625,17.3125 c 1.52793,-0.0823 3.09767,0.27023 4.375,1.03125 2.59789,1.54779 3.72795,4.77638 5.375,7.3125 1.79346,2.76156 3.63936,5.52314 4.90625,8.5625 0.90286,2.16603 2.02478,4.43269 1.875,6.78125 -0.0452,0.70919 -4.35624,0.41591 -6.53125,0.5625 -3.38987,0.22847 -6.76788,0.28154 -10.15625,0.53125 -3.45849,0.25488 -6.99323,0.20081 -10.375,0.96875 -1.51505,0.34404 -2.83268,1.43795 -4.375,1.625 -0.80264,0.0974 -2.64034,0.49264 -2.40625,-0.28125 1.84878,-6.11193 4.10393,-10.0553 6.53125,-14.90625 1.48507,-2.96787 2.71815,-6.16107 4.90625,-8.65625 1.20485,-1.37393 2.60699,-2.85046 4.375,-3.3125 0.47951,-0.12531 0.99069,-0.19132 1.5,-0.21875 z"
       style="fill:#000000;fill-opacity:1;stroke:#000000;stroke-width:4;stroke-linecap:butt;stroke-linejoin:miter;stroke-miterlimit:4;stroke-opacity:1;stroke-dasharray:none" />
    <path
       sodipodi:nodetypes="aaaaaaaaaaaaasaaaaaaaaaaaasaaaaaa"
       inkscape:connector-curvature="0"
       id="path3873"
       d="m 474.28026,179.35329 c -5.80224,2.38549 -11.24508,5.95455 -15.71429,10.35714 -2.4111,2.37516 -4.19508,5.36849 -5.71428,8.39286 -2.20537,4.39037 -3.96411,9.0908 -4.82144,13.92857 -1.18426,6.68264 -1.12726,13.61422 -0.35714,20.35715 0.83547,7.31513 2.15024,14.80098 5.35715,21.42857 2.42172,5.00486 6.12596,9.40774 10.17857,13.21429 4.18761,3.93335 8.97899,7.44146 14.28571,9.64285 6.89018,2.85825 14.51091,3.98362 21.96429,4.28571 6.40372,0.25955 13.15504,0.23359 19.10714,-2.14286 4.85368,-1.93789 8.35659,-6.27904 12.5,-9.46428 2.45439,-1.88681 6.23206,-2.81647 7.32143,-5.71429 1.4501,-3.85736 -0.21339,-8.60193 -2.32143,-12.14285 -1.29829,-2.18078 -4.49226,-5.5561 -5.89286,-4.82143 -1.39926,0.73396 -9.90278,9.67018 -16.07142,12.5 -6.0161,2.75985 -12.8677,4.47193 -19.46429,3.92857 -5.83932,-0.48098 -11.33865,-3.34799 -16.42857,-6.25 -4.23167,-2.41268 -8.75629,-5.03443 -11.42857,-9.10714 -3.01005,-4.58751 -3.78954,-10.42849 -4.28572,-15.89286 -0.52391,-5.76968 -0.41622,-11.82958 1.42857,-17.32143 1.66159,-4.94648 4.56791,-9.66486 8.39286,-13.21428 4.25539,-3.94886 9.66076,-7.09487 15.35714,-8.21429 5.1085,-1.00389 10.67015,-0.24511 15.53572,1.60714 4.66258,1.77498 8.18655,5.71063 12.14286,8.75 2.6835,2.06157 5.14581,4.40375 7.85714,6.42858 1.44185,1.07678 2.66878,3.15639 4.46428,3.03571 3.11216,-0.20917 6.03307,-3.27306 6.96429,-6.25 2.26905,-7.25374 -0.5256,-8.4835 -2.85715,-11.78571 -3.19951,-4.53154 -9.08579,-6.40174 -13.92857,-9.10715 -3.90531,-2.1817 -7.9221,-4.23219 -12.14285,-5.71428 -4.33176,-1.52107 -8.80853,-2.96574 -13.39286,-3.21429 -5.15318,-0.27939 -10.26421,1.13035 -15.35714,1.96429 -0.89857,0.14714 -1.83643,0.18948 -2.67857,0.53571 z"
       style="fill:#000000;fill-opacity:1;stroke:#000000;stroke-width:4;stroke-linecap:butt;stroke-linejoin:miter;stroke-miterlimit:4;stroke-opacity:1;stroke-dasharray:none" />
    <path
       sodipodi:nodetypes="aaaaaa"
       inkscape:connector-curvature="0"
       id="path3875"
       d="m 470.70883,189.71043 c -1.23963,-0.92652 -3.06694,0.83194 -4.28572,1.78572 -1.57507,1.2326 -3.06383,2.88688 -3.57142,4.82143 -0.36538,1.39255 -0.76959,3.67835 0.53571,4.28571 2.38009,1.10747 5.23159,-2.04983 6.60714,-4.28571 1.16076,-1.88675 2.48866,-5.28095 0.71429,-6.60715 z"
       style="fill:#000000;fill-opacity:1;stroke:#000000;stroke-width:1px;stroke-linecap:butt;stroke-linejoin:miter;stroke-opacity:1" />
    <path
       sodipodi:nodetypes="aaaaaaa"
       inkscape:connector-curvature="0"
       id="path3877"
       d="m 480.35169,184.53186 c -0.67771,0.75144 -0.67771,2.28428 0,3.03572 1.16227,1.2887 3.50614,0.99895 5.17857,0.53571 1.72092,-0.47667 3.48712,-1.61709 4.28571,-3.21428 0.21296,-0.42592 0.35699,-1.11343 0,-1.42858 -1.0793,-0.95279 -2.85532,0.37235 -4.28571,0.53572 -1.72419,0.19692 -4.0163,-0.75299 -5.17857,0.53571 z"
       style="fill:#000000;fill-opacity:1;stroke:#000000;stroke-width:1px;stroke-linecap:butt;stroke-linejoin:miter;stroke-opacity:1" />
    <path
       sodipodi:nodetypes="aaaaaaa"
       inkscape:connector-curvature="0"
       id="path3879"
       d="m 498.56597,184.35329 c -1.00653,0.10413 -2.57023,0.42248 -2.67857,1.42857 -0.16728,1.55345 2.12586,2.44283 3.57143,3.03572 1.49101,0.61152 3.29894,0.88545 4.82143,0.35714 0.91543,-0.31766 2.29679,-1.00762 2.14285,-1.96429 -0.2074,-1.28888 -2.34661,-1.15543 -3.57142,-1.60714 -1.39617,-0.51491 -2.80552,-1.40312 -4.28572,-1.25 z"
       style="fill:#000000;fill-opacity:1;stroke:#000000;stroke-width:1px;stroke-linecap:butt;stroke-linejoin:miter;stroke-opacity:1" />
    <path
       sodipodi:nodetypes="aaaaaaaaa"
       inkscape:connector-curvature="0"
       id="path3881"
       d="m 514.10168,189.71044 c -0.77357,0.019 -1.71362,0.249 -2.14285,0.89285 -0.42923,0.64385 -0.35185,1.63224 0,2.32143 0.96906,1.8982 3.32218,2.70308 5.17857,3.75 1.46371,0.82546 3.1055,2.64279 4.64286,1.96429 0.98172,-0.43328 1.33148,-1.99462 1.07143,-3.03572 -0.23482,-0.94009 -1.4565,-1.2803 -2.14286,-1.96428 -0.74593,-0.74335 -1.26516,-1.73951 -2.14286,-2.32143 -1.31818,-0.87397 -2.88318,-1.64607 -4.46429,-1.60714 z"
       style="fill:#000000;fill-opacity:1;stroke:#000000;stroke-width:1px;stroke-linecap:butt;stroke-linejoin:miter;stroke-opacity:1" />
    <path
       sodipodi:nodetypes="aaaaaaa"
       inkscape:connector-curvature="0"
       id="path3883"
       d="m 459.10169,249.71044 c -1.41527,1.82756 0.14148,4.86572 1.42857,6.78571 1.00203,1.49476 2.78058,2.40048 4.46428,3.03571 0.89801,0.3388 2.28609,1.12857 2.85715,0.35715 1.47433,-1.99161 -1.97544,-4.54608 -3.03572,-6.78572 -0.56952,-1.20299 -0.63791,-2.89757 -1.78571,-3.57142 -1.13046,-0.66367 -3.12595,-0.85787 -3.92857,0.17857 z"
       style="fill:#000000;fill-opacity:1;stroke:#000000;stroke-width:1px;stroke-linecap:butt;stroke-linejoin:miter;stroke-opacity:1" />
    <path
       sodipodi:nodetypes="aaaaaaaaa"
       inkscape:connector-curvature="0"
       id="path3885"
       d="m 477.49454,263.46043 c -1.03252,-0.1206 -2.34847,-0.0657 -3.03571,0.71429 -0.75181,0.85324 -0.90348,2.39549 -0.35714,3.39286 0.95916,1.75099 3.42225,2.18645 5.35714,2.67857 1.67392,0.42574 3.76018,1.16419 5.17857,0.17857 0.92745,-0.64448 1.33091,-2.11512 1.07143,-3.21429 -0.25143,-1.06506 -1.33967,-1.838 -2.32143,-2.32142 -1.23863,-0.6099 -2.78681,-0.1321 -4.10714,-0.53572 -0.63643,-0.19455 -1.12472,-0.81565 -1.78572,-0.89286 z"
       style="fill:#000000;fill-opacity:1;stroke:#000000;stroke-width:1px;stroke-linecap:butt;stroke-linejoin:miter;stroke-opacity:1" />
    <path
       sodipodi:nodetypes="aaaaaaaaa"
       inkscape:connector-curvature="0"
       id="path3887"
       d="m 499.45883,268.28186 c -1.23805,0.1824 -2.80137,-0.63761 -3.75,0.17857 -0.69023,0.59386 -0.99275,1.89104 -0.53572,2.67858 0.66135,1.13962 2.45285,1.01865 3.75,1.25 1.87609,0.3346 4.0513,1.10923 5.71429,0.17857 0.83756,-0.46872 1.40194,-1.54058 1.42857,-2.5 0.0258,-0.93134 -0.44417,-2.03236 -1.25,-2.5 -0.92812,-0.53861 -2.15329,0.018 -3.21428,0.17857 -0.72798,0.1102 -1.41445,0.42839 -2.14286,0.53571 z"
       style="fill:#000000;fill-opacity:1;stroke:#000000;stroke-width:1px;stroke-linecap:butt;stroke-linejoin:miter;stroke-opacity:1" />
    <path
       sodipodi:nodetypes="aaaaaaaaa"
       inkscape:connector-curvature="0"
       id="path3889"
       d="m 518.56597,262.21043 c -1.56671,0.46574 -3.03846,1.44189 -4.10714,2.67858 -0.55724,0.64484 -1.07143,1.46917 -1.07143,2.32142 0,0.85225 0.37861,1.82511 1.07143,2.32143 0.92446,0.66227 2.28252,0.60285 3.39286,0.35715 1.01665,-0.22496 1.91988,-0.894 2.67857,-1.60715 0.84212,-0.79157 1.5316,-1.78545 1.96428,-2.85714 0.40665,-1.00722 1.23782,-2.38549 0.53572,-3.21429 -0.96187,-1.13545 -3.03789,-0.42403 -4.46429,0 z"
       style="fill:#000000;fill-opacity:1;stroke:#000000;stroke-width:1px;stroke-linecap:butt;stroke-linejoin:miter;stroke-opacity:1" />
    <path
       sodipodi:nodetypes="saaaaaaaaas"
       inkscape:connector-curvature="0"
       id="path3891"
       d="m 522.1374,254.17472 c 0.88489,3.08463 1.92426,4.57102 3.03571,6.78571 1.03988,2.07208 1.91208,4.28757 3.39286,6.07143 0.59387,0.71542 1.22105,1.66411 2.14286,1.78572 0.84493,0.11147 1.98303,-0.28924 2.32143,-1.07143 0.44844,-1.03654 -0.59467,-2.19047 -1.07143,-3.21429 -0.91361,-1.96196 -2.49271,-3.56754 -3.39286,-5.53571 -0.57156,-1.24971 -0.67566,-2.68013 -1.25,-3.92857 -0.61443,-1.33557 -0.85231,-3.69526 -2.32143,-3.75 -0.80905,-0.0301 -0.83635,1.41224 -1.42857,1.96428 -0.41076,0.3829 -1.58342,0.35308 -1.42857,0.89286 z"
       style="fill:#000000;fill-opacity:1;stroke:#000000;stroke-width:1px;stroke-linecap:butt;stroke-linejoin:miter;stroke-opacity:1" />
    <path
       sodipodi:nodetypes="aaaaaaaaaaaaa"
       inkscape:connector-curvature="0"
       id="path3893"
       d="m 520.8874,207.74615 c -0.46895,-1.39333 1.48528,-2.54082 2.32143,-3.75 0.55526,-0.80298 1.27279,-1.49077 1.78571,-2.32143 1.077,-1.74418 1.68747,-3.74132 2.67857,-5.53571 0.543,-0.9831 0.6634,-2.81552 1.78572,-2.85714 1.10644,-0.041 1.19798,1.87939 1.96428,2.67856 0.26379,0.2751 0.84486,0.33618 0.89286,0.71429 0.18742,1.47624 -1.80297,2.3682 -2.67857,3.57143 -0.7288,1.0015 -1.48123,1.98862 -2.14286,3.03571 -0.5837,0.92375 -1.06821,1.90658 -1.60714,2.85715 -0.71006,1.25241 -0.70552,3.83219 -2.14285,3.75 -0.45258,-0.0259 -0.20919,-0.93556 -0.53572,-1.25 -0.59719,-0.57508 -2.05697,-0.1071 -2.32143,-0.89286 z"
       style="fill:#000000;fill-opacity:1;stroke:#000000;stroke-width:1px;stroke-linecap:butt;stroke-linejoin:miter;stroke-opacity:1" />
    <path
       sodipodi:nodetypes="aaaaaacaaaaaaaaaaaacaaaaaaasacaaaaaaaasa"
       inkscape:connector-curvature="0"
       id="path3895"
       d="m 549.20954,186.3683 c 1.00524,-2.19617 2.97018,-3.85098 4.79822,-5.42957 1.69204,-1.46115 3.43374,-4.13373 5.61898,-3.6618 1.41519,0.30563 1.89682,2.2822 2.33597,3.66181 1.31651,4.13586 0.42831,8.67012 0.63135,13.00571 0.24711,5.27648 0.5511,10.55094 0.71429,15.83068 0.13011,4.20992 0.36655,8.5895 0.21106,12.63402 6.19983,-2.75389 11.45626,-5.09335 17.06799,-7.88284 4.80548,-2.38872 9.38139,-5.22482 14.20527,-7.57615 5.27631,-2.57185 10.77248,-4.66867 16.0993,-7.1342 6.80785,-3.15102 13.63449,-6.27925 20.26619,-9.78586 3.65059,-1.93029 7.0696,-4.28105 10.73287,-6.18718 1.23609,-0.64318 2.47718,-2.24019 3.78807,-1.76777 1.66495,0.60002 2.09846,3.03707 2.27285,4.79823 0.077,0.77713 -0.53071,1.49281 -0.56821,2.27284 -0.0613,1.27535 1.00904,2.58977 0.56821,3.78807 -1.05057,2.85575 -4.40733,4.22673 -6.88167,5.99779 -4.94574,3.54001 -10.44704,6.23684 -15.78363,9.1545 -7.95291,4.34806 -15.88575,8.78361 -24.18053,12.4375 -7.92775,3.49222 -14.04802,5.05624 -24.36993,9.02824 5.00366,1.73321 6.29096,3.084 9.34391,4.79823 5.59242,3.14015 10.99683,6.60629 16.41498,10.03839 5.8678,3.71693 11.95037,7.1526 17.42514,11.42735 3.52153,2.74965 7.67542,5.18787 9.84898,9.09137 1.51195,2.71531 2.87772,6.2516 1.76776,9.15451 -0.9816,2.56724 -3.82288,4.81531 -6.56598,4.98763 -10.40773,0.65381 -18.25421,-10.11026 -27.08472,-15.65737 -4.11731,-2.58639 -9.61972,-5.75164 -12.0587,-8.20748 -3.91146,-3.93853 -9.55658,-6.14385 -13.95273,-9.72273 -2.94389,-2.3966 -4.71838,-4.64425 -8.27062,-7.82868 -0.38279,5.46995 -0.90338,7.52823 -1.13643,11.31006 -0.28207,4.57731 -0.15187,9.17129 -0.31567,13.75436 -0.0775,2.16878 0.77204,4.62494 -0.31567,6.50285 -1.25231,2.16209 -3.81565,3.97794 -6.31345,4.04061 -2.03538,0.0511 -4.14675,-1.3548 -5.30331,-3.03045 -0.91979,-1.33262 -0.41154,-3.21642 -0.75761,-4.79823 -0.59805,-2.7336 -1.90178,-5.30768 -2.27284,-8.08122 -1.0242,-7.65551 0.18008,-15.44666 0.18941,-23.17037 0.0132,-10.96454 -0.20173,-22.2039 -0.18941,-32.8931 0.006,-5.01203 -0.0657,-10.34244 2.02031,-14.89975 z"
       style="fill:#000000;fill-opacity:1;stroke:#000000;stroke-width:4;stroke-linecap:butt;stroke-linejoin:miter;stroke-miterlimit:4;stroke-opacity:1;stroke-dasharray:none" />
    <path
       sodipodi:nodetypes="aaaaaaaaaaaaaacaacaaaasaaaaaaaacacaaa"
       inkscape:connector-curvature="0"
       id="path3897"
       d="m 84.117726,302.0939 c -2.11493,0.0151 -3.70565,2.41182 -4.67195,4.29315 -0.39714,0.77321 -0.2702,1.72048 -0.31568,2.58852 -0.26429,5.04455 0.19335,10.10117 0.25254,15.15229 0.10925,9.32244 0.12736,18.64572 0.1894,27.96859 0.0214,3.21986 -0.0349,6.44115 0.0631,9.65959 0.0943,3.09673 0.32858,6.18763 0.50508,9.28077 0.16093,2.82045 -8.5e-4,5.68067 0.50507,8.46003 0.56026,3.07797 1.43336,6.14023 2.77792,8.9651 0.48915,1.0277 0.79612,2.54102 1.89403,2.84106 1.26206,0.34489 2.55863,-0.83435 3.53553,-1.70463 1.11601,-0.99421 2.01495,-2.34366 2.39912,-3.78807 0.96923,-3.6441 -0.39608,-7.53188 -0.50508,-11.30109 -0.0462,-1.59888 -0.0116,-3.1995 -0.0631,-4.79822 -0.0794,-2.4642 -0.57572,-5.51679 -0.37881,-7.38674 5.04596,-0.59422 12.159814,-0.63437 18.245884,-0.69448 3.45176,-0.0341 6.90378,0.29602 10.35406,0.1894 3.4186,-0.10564 7.33009,-1.17182 10.2278,-0.82075 0.31801,3.10239 0.0417,7.91355 0.12627,11.8693 0.0981,4.58909 -0.20719,9.21932 0.44194,13.76332 0.43022,3.01156 -0.48696,7.559 2.27285,8.83884 1.97247,0.91472 4.15243,-1.50984 5.8715,-2.84106 0.72011,-0.55764 1.86963,-1.21025 1.76777,-2.08344 -1.57795,-13.52628 -0.70548,-26.34605 -0.88388,-39.52221 -0.1208,-8.9223 -0.33981,-17.84849 -0.12627,-26.76905 0.11499,-4.80349 1.18015,-9.60842 0.75762,-14.39467 -0.22041,-2.49675 0.20353,-5.69842 -1.70463,-7.32361 -0.93146,-0.79332 -2.54586,-0.75415 -3.66181,-0.25254 -1.69699,0.76279 -2.76911,2.67248 -3.40926,4.41942 -0.79733,2.17584 -0.2459,4.62853 -0.31568,6.9448 -0.17113,5.68016 -0.17479,11.36413 -0.25254,17.04633 -0.0688,5.02964 -0.3373,10.84684 -0.18939,15.08915 -8.96253,1.09847 -12.49848,0.83503 -18.75096,1.19955 -7.19508,0.41947 -16.439554,0.90239 -21.592024,1.13642 -1.64428,-11.07474 0.31481,-25.65485 -1.01015,-38.38579 -0.15724,-1.51086 -0.0772,-3.15795 -0.82074,-4.48255 -0.77337,-1.37768 -1.95568,-3.16803 -3.53553,-3.15673 z"
       style="fill:#000000;fill-opacity:1;stroke:#000000;stroke-width:4;stroke-linecap:butt;stroke-linejoin:miter;stroke-miterlimit:4;stroke-opacity:1;stroke-dasharray:none" />
    <path
       sodipodi:nodetypes="ssssssssssssssssssssssssssssssssssssss"
       inkscape:connector-curvature="0"
       id="path3899"
       d="m 177.50347,301.00634 c -2.39531,0.0479 -4.73018,-0.36209 -6.84375,0.76602 -2.91146,1.55398 -5.55481,3.65537 -7.8125,6.0625 -2.36389,2.52036 -4.13948,5.57031 -5.8125,8.59375 -1.91601,3.46256 -3.71622,7.03243 -4.78125,10.84375 -1.23361,4.4146 -1.40034,9.08838 -1.78125,13.65625 -0.56002,6.71577 -0.82463,13.44883 -0.75,20.1875 0.0626,5.64972 -0.65831,11.53628 1,16.9375 1.98302,6.45885 5.41294,12.78713 10.34375,17.40625 3.79152,3.55184 8.75221,6.4403 13.90625,7.09375 5.38953,0.68332 11.09637,-1.03684 15.90625,-3.5625 4.27164,-2.24302 7.9022,-5.83955 10.59375,-9.84375 2.259,-3.3607 2.86312,-7.56265 4.3125,-11.34375 1.16382,-3.03613 2.78751,-5.9284 3.53125,-9.09375 1.06337,-4.52571 1.17009,-9.25798 1.25,-13.90625 0.1029,-5.98533 -0.21902,-12.00245 -1,-17.9375 -0.53847,-4.09209 -1.33281,-8.14421 -2.53125,-12.09375 -1.37075,-4.51741 -2.5927,-9.29766 -5.3125,-13.15625 -1.75199,-2.48555 -4.23904,-4.44239 -6.8125,-6.0625 -2.3947,-1.50757 -5.14422,-2.3391 -7.8125,-3.28125 -3.14015,-1.10876 -6.26427,-1.33258 -9.59375,-1.26602 z m -0.28125,15.32852 c 1.37231,0.004 2.74838,0.12732 4.0625,0.34375 2.6397,0.43476 5.10967,1.76317 7.3125,3.28125 2.94074,2.02662 5.78258,4.48439 7.59375,7.5625 2.1755,3.69729 3.05273,8.11193 3.53125,12.375 0.6865,6.1159 -0.12109,12.34627 -1,18.4375 -0.88937,6.16374 -1.44086,12.66153 -4.3125,18.1875 -1.40224,2.69837 -3.40264,5.33853 -6.0625,6.8125 -4.40612,2.44168 -9.96656,3.5187 -14.90625,2.53125 -4.48872,-0.8973 -8.91909,-3.59767 -11.59375,-7.3125 -2.27855,-3.16467 -2.41425,-7.49271 -2.78125,-11.375 -0.30938,-3.27272 0.30401,-6.56229 0.5,-9.84375 0.22134,-3.70589 0.43899,-7.42556 0.75,-11.125 0.35436,-4.21509 0.36321,-8.49586 1.28125,-12.625 0.71649,-3.22261 1.60931,-6.49715 3.28125,-9.34375 1.47992,-2.51966 3.17696,-5.23716 5.78125,-6.5625 1.97826,-1.00676 4.27532,-1.34997 6.5625,-1.34375 z"
       style="fill:#000000;fill-opacity:1;stroke:#000000;stroke-width:4;stroke-linecap:butt;stroke-linejoin:miter;stroke-miterlimit:4;stroke-opacity:1;stroke-dasharray:none" />
    <path
       sodipodi:nodetypes="ssscssssssssscssssssscssssscssssssssssssc"
       inkscape:connector-curvature="0"
       id="path3901"
       d="m 251.71776,303.94647 c -2.90376,-0.0115 -5.84634,0.2026 -8.71875,0.4375 -3.86897,0.31639 -7.19651,2.57908 -10.87054,1.32589 -0.75954,-0.25908 -0.79421,-1.7436 -1.59375,-1.8125 -2.18526,-0.18822 -4.45006,2.08175 -5.125,4.125 -0.96672,2.92657 0.92795,12.49751 1.03125,18.75 0.12379,7.49284 -0.5621,14.97515 -0.5,22.46875 0.0894,10.78281 0.48226,21.55669 1.25,32.3125 0.41613,5.82991 -0.90951,10.71722 1.8125,17.4375 0.48343,1.19351 2.55522,0.66445 3.71875,0.25 1.74994,-0.62333 3.24168,-2.13056 4.09375,-3.78125 1.40318,-2.71836 0.9853,-6.07064 1.15625,-9.125 0.31991,-5.71587 -0.006,-11.43664 -0.25,-17.15625 -0.12542,-2.94072 -0.21559,-5.62373 -0.625,-8.8125 4.78829,-0.0225 7.82718,4.9265 11.625,7.5625 5.24205,3.63841 10.5294,7.25997 15.40625,11.375 4.73211,3.99291 7.94845,9.8936 13.375,12.875 2.80937,1.54349 6.23184,3.05 9.34375,2.28125 1.85278,-0.4577 3.91708,-1.90784 4.28125,-3.78125 0.8367,-4.30426 -3.27731,-8.24872 -5.875,-11.78125 -3.37116,-4.58435 -8.20823,-7.90218 -12.3125,-11.84375 -3.56695,-3.42555 -7.67775,-7.30353 -10.6875,-10.25 6.19629,-2.37317 15.5984,-7.39956 19.6875,-14.4375 2.75643,-4.74421 3.04634,-10.98339 1.875,-16.34375 -1.27012,-5.81239 -5.39973,-10.36842 -9.78571,-14.38839 -3.76266,-3.44866 -8.79624,-5.52077 -13.75,-6.75 -2.79717,-0.6941 -5.65874,-0.92603 -8.5625,-0.9375 z m -17.52679,13.07589 c 1.87315,0.21716 4.41062,0.55434 6.625,0.78125 2.33754,0.23954 4.71917,0.20575 7.03125,0.625 2.65733,0.48185 5.24672,1.34469 7.8125,2.1875 2.6814,0.88079 5.39689,1.70818 7.90625,3 2.73547,1.40822 5.71748,2.76176 7.6875,5.125 1.05847,1.26974 2.40627,2.93714 1.96875,4.53125 -0.91776,3.34389 -5.31192,4.62343 -8.4375,6.125 -2.99631,1.43946 -6.37784,1.91375 -9.625,2.625 -2.68131,0.5873 -5.3865,1.15671 -8.125,1.34375 -3.51433,0.24003 -9.95702,0.33911 -10.5625,-0.28125 -1.09411,-1.12097 -0.94139,-3.01091 -1.15625,-4.5625 -0.42802,-3.0908 -0.0643,-6.22728 -0.21875,-9.34375 -0.20086,-4.05357 -1.16504,-9.58347 -0.90625,-12.15625 z"
       style="fill:#000000;fill-opacity:1;stroke:#000000;stroke-width:4;stroke-linecap:butt;stroke-linejoin:miter;stroke-miterlimit:4;stroke-opacity:1;stroke-dasharray:none" />
    <path
       sodipodi:nodetypes="aaaaaaaaaaaaaaaaaaaaaaaaaaaaaaaaaaaaaaaaaaaaaaaaa"
       inkscape:connector-curvature="0"
       id="path3903"
       d="m 366.64476,311.87976 c -0.72831,-1.85843 -2.71658,-2.99919 -4.41941,-4.04061 -2.56777,-1.57041 -5.51473,-2.53633 -8.46003,-3.15673 -3.54797,-0.74734 -7.23497,-0.74086 -10.85914,-0.63135 -3.55887,0.10754 -7.2096,0.19613 -10.60659,1.26269 -4.09601,1.28602 -7.7787,3.69974 -11.36422,6.06092 -2.47592,1.63047 -4.85297,3.45516 -6.9448,5.55584 -2.19854,2.20783 -4.39525,4.54671 -5.80838,7.3236 -1.06986,2.10234 -1.73686,4.46488 -1.89404,6.81854 -0.18402,2.75579 0.0684,5.6604 1.13643,8.20748 1.25332,2.98905 3.12939,6.0789 5.93464,7.70242 2.97781,1.72339 6.82244,0.89804 10.2278,1.38896 4.97262,0.71686 9.97767,1.26581 14.89974,2.27283 4.13056,0.84509 8.36878,1.50554 12.24811,3.15674 2.72994,1.16198 5.25959,2.81821 7.57614,4.67195 1.97534,1.5807 4.06977,3.22073 5.3033,5.42957 0.84613,1.51515 1.34386,3.31726 1.26269,5.05076 -0.14818,3.16474 -1.06087,6.5892 -3.15672,8.96511 -1.68101,1.90564 -4.33719,2.86132 -6.81853,3.40926 -2.83706,0.62649 -5.82734,0.0893 -8.71257,-0.25254 -3.45935,-0.40985 -6.93167,-1.01936 -10.22779,-2.14657 -3.09922,-1.05988 -5.90083,-2.84519 -8.83884,-4.29315 -1.94166,-0.95692 -3.8085,-2.07581 -5.80837,-2.90418 -1.84452,-0.76402 -3.7114,-1.57424 -5.68211,-1.89404 -1.28793,-0.209 -2.88182,-0.79772 -3.91434,0 -1.5834,1.22333 -1.62259,3.81034 -1.51523,5.80838 0.14009,2.60715 1.34921,5.13827 2.77792,7.3236 1.61238,2.46628 3.87074,4.5393 6.31345,6.18718 2.70319,1.82361 5.84879,2.95443 8.9651,3.91435 4.13395,1.27339 8.46818,1.80766 12.75318,2.39911 3.30676,0.45642 6.63823,0.9691 9.97526,0.88388 2.42183,-0.0618 4.93441,-0.14511 7.19733,-1.01015 3.88186,-1.4839 7.25178,-4.17955 10.35407,-6.9448 2.2288,-1.98666 4.64858,-4.0673 5.80837,-6.81853 1.77332,-4.20663 1.4938,-9.07778 1.26269,-13.63706 -0.22147,-4.36929 -1.1575,-8.72389 -2.52538,-12.87945 -0.83002,-2.52155 -1.78329,-5.0989 -3.40926,-7.19733 -1.61078,-2.07882 -3.92868,-3.5114 -6.06092,-5.05077 -2.6515,-1.91424 -5.25435,-4.07611 -8.33376,-5.17703 -3.03807,-1.08614 -6.39896,-0.83181 -9.59645,-1.26269 -3.66336,-0.49365 -7.31156,-1.10691 -10.98541,-1.51522 -2.98067,-0.33127 -6.04767,-0.0628 -8.9651,-0.75762 -2.73717,-0.65186 -6.5394,-0.65578 -7.82868,-3.15673 -0.49584,-0.96183 0.16429,-2.25176 0.75761,-3.15672 2.1093,-3.21719 5.7088,-5.36763 9.21765,-6.9448 4.26888,-1.91879 9.09427,-2.45377 13.76333,-2.77792 5.55266,-0.38549 11.10634,1.2428 16.66751,1.01015 2.63461,-0.11022 6.02184,0.78416 7.82868,-1.13642 1.38913,-1.47658 1.24479,-4.17338 0.50507,-6.06091 z"
       style="fill:#000000;fill-opacity:1;stroke:#000000;stroke-width:4;stroke-linecap:butt;stroke-linejoin:miter;stroke-miterlimit:4;stroke-opacity:1;stroke-dasharray:none" />
    <path
       sodipodi:nodetypes="caaaaaaaaasasaaasaaccaaaaaaacaacaaaaaaaaaac"
       inkscape:connector-curvature="0"
       id="path3905"
       d="m 398.46457,305.44003 c -0.93416,-0.6805 -0.77852,-2.60191 -1.89403,-2.90419 -1.36259,-0.36923 -2.92105,0.77993 -3.78807,1.89404 -1.54139,1.98067 -1.29391,4.86538 -1.60994,7.35517 -0.32218,2.53834 -0.17485,5.11448 -0.2841,7.67085 -0.38154,8.92744 -1.02499,17.84393 -1.29705,26.77538 -0.10253,3.36588 -0.22179,6.73545 -0.12627,10.10153 0.1208,4.25692 0.54129,8.50046 0.8839,12.74529 0.30992,3.83989 0.39715,7.71348 1.05982,11.50844 0.6664,3.81632 0.49564,8.22741 2.9195,11.24955 1.32026,1.64612 3.33098,2.83166 5.63615,2.88252 3.65524,0.0806 15.16473,-0.34497 22.74639,-0.23087 5.73753,0.0863 13.85986,0.74638 17.20059,0.69262 1.67815,-0.027 2.73372,-1.97166 4.23188,-2.72825 1.0342,-0.52229 2.548,-0.31121 3.24972,-1.23314 1.94508,-2.55544 1.9357,-6.55438 0.89549,-9.59273 -0.3823,-1.11664 -1.28297,-1.82032 -2.42077,-2.58403 -2.44023,-1.63791 -12.83401,0.36682 -19.2452,0.13896 -6.45542,-0.22943 -12.8608,-1.39419 -19.31917,-1.51523 -2.06375,-0.0387 -4.63418,1.61222 -6.18719,0.25254 -0.71936,-4.53833 -0.744,-15.42494 -1.09046,-19.51043 4.9908,-0.45504 10.12377,-0.0315 15.18555,-0.005 5.78099,0.0303 11.70538,1.47093 17.3422,0.18754 2.07427,-0.47226 4.79514,-0.91051 5.7228,-2.82495 0.76509,-1.57895 -0.60736,-3.46317 -1.09633,-5.1482 -0.39826,-1.37243 -0.50367,-2.986 -1.49032,-4.01978 -1.46477,-1.53474 -3.78272,-2.04799 -5.85806,-2.4884 -4.98259,-1.05735 -10.185,-0.2542 -15.27855,-0.25254 -4.84913,0.002 -10.35096,0.13841 -14.54523,0.24992 -0.85727,-0.43365 -0.0433,-4.65973 -0.0497,-6.98967 -0.0118,-4.32961 -0.0374,-8.65963 0.0217,-12.98885 0.0224,-1.64189 -0.33743,-3.61246 0.12627,-4.9245 6.45638,0.61487 17.17358,3.43113 25.88516,4.04061 2.77147,0.1939 5.60178,0.37859 8.33376,-0.12627 2.29139,-0.42343 5.1657,-0.5366 6.56599,-2.39911 1.47048,-1.95589 0.83947,-4.89956 0.50508,-7.3236 -0.17101,-1.23968 -0.39219,-2.6365 -1.26269,-3.53553 -1.03845,-1.07249 -2.71727,-1.2848 -4.16688,-1.64151 -2.67194,-0.65748 -5.45837,-0.76591 -8.20749,-0.88389 -3.91165,-0.16786 -7.82825,0.31339 -11.74303,0.25254 -4.00357,-0.0622 -8.04228,0.004 -11.99556,-0.63134 -1.89524,-0.30472 -4.00428,-0.38498 -5.55584,-1.51523 z"
       style="fill:#000000;fill-opacity:1;stroke:#000000;stroke-width:4;stroke-linecap:butt;stroke-linejoin:miter;stroke-miterlimit:4;stroke-opacity:1;stroke-dasharray:none" />
    <path
       sodipodi:nodetypes="caaaaaaaacaaaaaaaaasasaaacaaaaaaasaaaaac"
       inkscape:connector-curvature="0"
       id="path3907"
       d="m 470.29001,390.77364 c -4.95577,-2.98578 -2.66654,-11.32198 -2.98187,-17.09909 -0.38936,-7.13339 0.77814,-14.26859 1.36204,-21.38869 0.73751,-8.99324 0.85142,-18.1037 2.70395,-26.93492 0.96912,-4.6199 1.55428,-9.68031 4.36711,-13.47118 1.50883,-2.03346 3.71592,-4.57391 6.23686,-4.33648 3.18293,0.29976 4.64848,4.40893 6.71393,6.84917 3.29989,3.89867 6.04915,8.23221 9.02003,12.38706 2.08896,2.92147 4.23021,5.80919 6.1909,8.81826 1.45029,2.22574 2.56123,5.65983 4.11721,6.82378 1.43531,-5.05112 5.62486,-12.54373 8.94607,-18.55258 1.51329,-2.7379 2.98236,-5.5491 4.98948,-7.9486 2.18971,-2.61778 4.55256,-5.30198 7.57352,-6.88987 2.1388,-1.1242 4.86209,-2.65777 7.05837,-1.65048 1.94419,0.89168 2.34977,3.6412 2.96918,5.68846 1.67432,5.53389 1.29128,11.49144 1.84437,17.24656 0.49105,5.10954 1.02585,10.21826 1.30865,15.34355 0.33515,6.07403 0.22271,12.16535 0.45912,18.24402 0.18673,4.80124 0.48607,9.59749 0.75761,14.39468 0.24475,4.32391 1.58945,11.23411 0.78563,12.96873 -0.49878,1.07633 -1.5414,1.83208 -2.49475,2.53807 -1.54837,1.14661 -3.40262,3.75949 -5.12473,2.67331 -2.0152,-1.27104 -1.87525,-8.969 -2.3595,-13.51714 -0.84264,-7.91426 -0.60906,-15.90634 -0.93881,-23.8585 -0.31067,-7.49176 -0.36494,-15.0003 -0.97952,-22.47327 -0.39812,-4.84091 0.10654,-12.32149 -1.75244,-14.46601 -2.57966,1.30521 -3.89831,6.50209 -5.57379,9.89758 -2.50539,5.07736 -4.12222,10.56534 -6.67541,15.61883 -2.21276,4.3797 -3.20111,10.25816 -7.4641,12.68819 -1.54833,0.88259 -3.72552,0.72515 -5.34662,-0.0153 -3.24366,-1.4816 -4.84276,-5.2477 -7.02775,-8.0659 -3.00445,-3.87513 -5.40585,-8.18855 -8.33376,-12.12183 -1.76727,-2.3741 -3.61093,-4.69579 -5.5659,-6.91788 -1.28071,-1.45569 -3.96594,-4.84808 -4.03055,-4.1938 -0.23698,2.39991 -1.26623,14.72978 -1.78307,22.10343 -0.51823,7.39341 -0.50191,14.82924 -1.32135,22.19534 -0.48868,4.39287 -0.44952,9.00221 -2.14023,13.08603 -0.52179,1.26037 -1.28588,2.5192 -2.3875,3.3237 -0.88363,0.6453 -2.18516,1.57744 -3.12238,1.01279 z"
       style="fill:#000000;fill-opacity:1;stroke:#000000;stroke-width:4;stroke-linecap:butt;stroke-linejoin:miter;stroke-miterlimit:4;stroke-opacity:1;stroke-dasharray:none" />
    <path
       inkscape:connector-curvature="0"
       id="path3909"
       d="m 585.40972,306.67861 c -1.52926,0.22888 -4.37053,2.69419 -5.375,3.53125 -1.07143,0.89285 -4.81697,6.50893 -5.53125,7.9375 -0.71429,1.42858 -3.125,8.75 -4.375,11.25 -1.25,2.5 -4.23661,9.29018 -4.59375,11.96875 -0.35714,2.67857 -1.87054,8.33929 -2.40625,10.125 -0.53571,1.78572 -3.32143,15.27233 -3.5,17.59375 -0.17857,2.32143 -0.5625,12.8125 -0.5625,15.3125 0,2.5 0.11607,10.63393 1.1875,12.0625 1.25,0.35714 6.5134,-3.54911 7.40625,-6.40625 0.89286,-2.85714 1.09375,-11.51786 1.09375,-14.375 0,-2.85714 1.25682,-13.49467 1.8125,-14.0625 0.84015,-0.85852 4.33036,0.3125 7.1875,0.3125 2.85714,0 4.65625,0.27232 8.40625,0.0937 3.75,-0.17857 12.21434,-0.24216 12.375,0.28125 0.22613,0.73673 0.183,5.78064 0.34375,8.0625 0.2285,3.24354 0.3616,6.78572 0.71875,10 0.35714,3.21429 1.41071,9.87054 2.125,12.90625 0.71428,3.03572 2.95982,3.72321 4.03125,3.1875 1.07143,-0.53571 1.55804,-1.20982 3.34375,-2.28125 1.78572,-1.07143 0.57589,-4.60268 0.21875,-7.28125 -0.35714,-2.67857 -1.37053,-9.1875 -1.90625,-12.9375 -0.53571,-3.75 -0.88393,-10.57589 -1.0625,-11.46875 -0.17857,-0.89285 0.37717,-0.23818 0.9375,-1.21875 1.07143,-1.875 0.29018,-5.66518 0.46875,-8.34375 0.17857,-2.67857 -1.24107,-2.68304 -2.3125,-3.21875 -1.07143,-0.53572 -0.79464,-5.37054 -1.6875,-8.40625 -0.89285,-3.03572 -3.30803,-13.8125 -4.46875,-16.3125 -1.06347,-2.29054 -5.72321,-10.83035 -7.6875,-13.6875 -1.96429,-2.85714 -3.55809,-4.48019 -5.875,-4.625 -0.0893,-0.006 -0.21055,-0.0153 -0.3125,0 z m -1.5625,16.6875 c 0.0619,-0.0226 0.109,-0.0189 0.15625,0 0.93175,0.37319 2.41343,2.54869 3.3125,4.03125 1.45899,2.4059 2.22556,5.1547 3.3125,7.75 1.20632,2.88032 2.56283,5.69785 3.5625,8.65625 0.44373,1.31314 1.43391,3.03333 1.0625,4.03125 -0.16376,0.44 -3.07624,0.1875 -4.625,0.1875 -3.09753,0 -6.19061,-0.16856 -9.28125,-0.375 -2.50573,-0.16738 -7.5869,0.0654 -7.5,-0.71875 0.0972,-0.87742 0.85947,-3.4511 1.40625,-5.15625 1.16153,-3.62226 2.26217,-7.3036 3.9375,-10.71875 1.24787,-2.54377 3.72809,-7.34828 4.65625,-7.6875 z"
       style="fill:#000000;fill-opacity:1;stroke:#000000;stroke-width:4;stroke-linecap:butt;stroke-linejoin:miter;stroke-miterlimit:4;stroke-opacity:1;stroke-dasharray:none" />
    <path
       sodipodi:nodetypes="aaaaaaaaaaaaaaaaaacaaaaaaaaaaaaasaaaaaaaaacaaaaaaaaaaa"
       inkscape:connector-curvature="0"
       id="path3911"
       d="m 631.24455,397.56757 c -1.18068,-0.58035 -1.92221,-1.90346 -2.41072,-3.125 -1.06667,-2.66722 -0.7683,-5.70152 -0.89286,-8.57142 -0.22716,-5.23393 -0.0361,-10.48426 0.26785,-15.71429 0.27937,-4.80716 0.96004,-9.58258 1.42858,-14.375 0.30256,-3.09476 0.53124,-6.19729 0.89285,-9.28571 0.63241,-5.40115 1.28107,-10.80648 2.23215,-16.16071 0.78308,-4.40845 1.89993,-8.75106 2.85714,-13.12501 0.32574,-1.48845 0.10466,-3.21864 0.98215,-4.46428 1.35535,-1.92399 3.64549,-4.03076 5.98214,-3.75001 1.52544,0.18329 2.26166,2.09813 3.21428,3.30358 1.61768,2.04701 2.97483,4.30175 4.19643,6.60714 1.92858,3.6396 3.10862,7.63544 4.91072,11.33929 1.74794,3.59253 3.63806,7.12237 5.71429,10.53571 2.1492,3.53331 4.73883,6.78207 6.96428,10.26786 1.96109,3.07171 3.64372,6.31628 5.625,9.375 1.6967,2.61938 3.51595,5.15866 5.35714,7.67857 1.87881,2.57141 3.59266,5.29714 5.80357,7.58929 0.91006,0.9435 1.83733,3.03127 3.03572,2.5 0.67475,-6.23718 1.14208,-9.69057 1.51785,-14.55358 0.31912,-4.12983 0.48701,-8.27086 0.625,-12.41071 0.24296,-7.28859 -0.008,-14.59151 0.35715,-21.875 0.16011,-3.19175 -0.5596,-6.66312 0.80357,-9.55357 0.74513,-1.57996 2.36012,-2.60255 3.75,-3.66071 0.65795,-0.50092 1.32276,-1.3561 2.14286,-1.25 1.25225,0.16201 2.10079,1.55583 2.67857,2.67857 0.91122,1.77067 0.83616,3.90683 0.98214,5.89285 0.35569,4.83896 -0.13286,9.70344 -0.26786,14.55358 -0.13341,4.79314 -0.2625,9.58779 -0.53571,14.375 -0.26534,4.649 -0.85119,9.27721 -1.07143,13.92857 -0.15768,3.33013 -0.1993,6.6662 -0.17857,10 0.0183,2.94772 0.27023,5.8915 0.26786,8.83928 -0.002,2.79904 -0.11698,7.49213 -0.26786,8.39286 -0.32337,1.93039 -2.14495,3.07481 -3.66072,4.10714 -1.49426,1.01768 -3.32671,2.27729 -5.08928,1.875 -3.75516,-0.85709 -5.50674,-5.3984 -8.03572,-8.30357 -2.7285,-3.13437 -5.28518,-6.42427 -7.67857,-9.82143 -2.37298,-3.3682 -4.12771,-7.1558 -6.60714,-10.44643 -1.75061,-2.32336 -4.07522,-4.17788 -5.80357,-6.51785 -2.72927,-3.69509 -4.87978,-7.78808 -7.14286,-11.78572 -1.50847,-2.66466 -2.90496,-5.39197 -4.28571,-8.125 -0.89435,-1.77027 -1.75582,-3.5574 -2.58929,-5.35714 -1.20384,-2.5995 -2.27181,-6.70203 -3.48214,-7.85714 -1.16133,1.38119 -2.24314,7.73781 -2.94643,11.69643 -0.59676,3.359 -0.83459,6.7752 -1.07143,10.17857 -0.18192,2.61424 -0.19238,5.23766 -0.26784,7.85714 -0.0729,2.52941 -0.10018,5.06004 -0.17857,7.58929 -0.072,2.32203 -0.23848,4.64132 -0.26785,6.96428 -0.0286,2.26192 0.0744,4.52367 0.0893,6.78572 0.0119,1.81543 0.33302,3.66175 0,5.44642 -0.439,2.35259 -1.30313,4.67821 -2.58928,6.69643 -0.57692,0.90529 -1.29781,1.79283 -2.23214,2.32143 -0.93001,0.52616 -2.06321,0.59448 -3.125,0.71428 -2e-5,0 -3e-5,1e-5 -4e-5,0 z"
       style="fill:#000000;fill-opacity:1;stroke:#000000;stroke-width:4;stroke-linecap:butt;stroke-linejoin:miter;stroke-miterlimit:4;stroke-opacity:1;stroke-dasharray:none" />
    <path
       style="fill:#ffffff;fill-opacity:1;stroke:#000000;stroke-width:4;stroke-linecap:butt;stroke-linejoin:miter;stroke-miterlimit:4;stroke-opacity:1;stroke-dasharray:none"
       d="m 144.75347,176.77236 c -4.70563,0.0358 -9.41927,0.51322 -14.125,0.53125 -3.93035,0.0151 -7.85093,-0.322 -11.78125,-0.34375 -3.09576,-0.0171 -6.25273,-0.45445 -9.28125,0.1875 -2.40088,0.50891 -4.24205,1.7834 -6.24554,3.20089 -0.72237,0.51108 -1.6102,1.10055 -1.78125,1.96875 -0.26934,1.36714 1.12178,2.57343 1.40625,3.9375 1.94809,9.34142 0.77486,18.67618 1.27679,28.20536 0.21937,4.16472 0.14659,8.34728 0.53125,12.5 0.27174,2.93372 0.92455,5.82175 1.25,8.75 0.74534,6.7062 0.0278,13.62424 1.59375,20.1875 0.91071,3.81692 1.03411,8.17897 4.46875,10.875 3.28905,2.58174 18.34257,1.63847 27.5,1.09375 7.94191,-0.47242 16.12939,-0.91345 23.5625,-3.75 5.55342,-2.11924 10.56637,-5.69714 15,-9.65625 2.17734,-1.94431 4.65904,-3.99551 5.53125,-6.78125 2.06933,-6.60914 1.29872,-15.45108 -1.59375,-20.71875 -1.89947,-3.45925 -6.92293,-5.44347 -8.03125,-8.5625 1.8354,-2.91187 8.84184,-6.57983 11.0625,-11.78125 0.88997,-2.08457 1.56738,-5.20235 1.625,-7.875 0.0974,-4.52002 0.0116,-9.40758 -2.15625,-13.375 -1.79904,-3.29243 -4.93233,-6.08278 -8.40625,-7.5 -4.85503,-1.98066 -10.44704,-0.54012 -15.6875,-0.71875 -5.23641,-0.17849 -10.47945,-0.4149 -15.71875,-0.375 z m 7.5625,15.5625 c 3.86473,-0.0157 7.70979,0.13166 11.53125,0.6875 3.37402,0.49076 7.9008,0.0518 9.8125,2.875 1.37486,2.03036 0.34545,5.08863 -0.6875,7.3125 -1.36537,2.93956 -3.95775,5.43393 -6.8125,6.96875 -3.36229,1.80769 -7.45866,1.67949 -11.25,2.125 -9.05437,1.06395 -18.19743,1.42057 -27.3125,1.25 -4.29982,-0.0805 -11.37539,1.05067 -12.84375,-1.0625 -1.6054,-2.3104 -1.1703,-6.51325 -1.25,-9.8125 -0.0736,-3.04415 -0.39894,-7.08371 0.71875,-9.125 0.7766,-1.41835 4.60694,-0.56829 6.9375,-0.6875 3.92344,-0.20067 7.88395,-0.0113 11.8125,0 6.43609,0.0186 12.90254,-0.50509 19.34375,-0.53125 z m -32.5,34.96875 c 1.67393,-0.0128 3.86865,0.19813 5.46875,0.1875 5.95255,-0.0394 11.89405,-8.1e-4 17.84375,0.1875 4.46839,0.14144 9.01399,-0.11466 13.40625,0.71875 2.9589,0.56144 5.97458,1.30331 8.5625,2.84375 2.17125,1.29242 4.55255,2.85796 5.53125,5.1875 0.99165,2.36037 1.07797,5.44442 -0.15625,7.6875 -2.06923,3.76063 -6.70723,5.59799 -10.71875,7.125 -3.20197,1.21886 -6.76971,1.19883 -10.1875,1.4375 -10.03508,0.70079 -29.09797,1.80213 -30.1875,0 -0.90332,-1.49412 -0.76117,-8.45696 -1.0625,-12.6875 -0.29229,-4.10364 -2.24067,-11.22822 -0.71875,-12.3125 0.38874,-0.27695 1.21439,-0.36734 2.21875,-0.375 z"
       id="path3026"
       inkscape:connector-curvature="0"
       sodipodi:nodetypes="sccsssssssssssssscscssssssssssssssscsscsssssssssss" />
    <path
       style="fill:#ffffff;fill-opacity:1;stroke:#000000;stroke-width:4;stroke-linecap:butt;stroke-linejoin:miter;stroke-miterlimit:4;stroke-opacity:1;stroke-dasharray:none"
       d="m 236.94097,197.08486 c -2.39969,0.0837 -4.81652,0.37607 -7.1875,0.59375 -1.62762,0.14944 -3.32138,0.28012 -4.84375,0.875 -5.30675,2.07367 -10.27631,5.23318 -14.4375,9.125 -3.5478,3.31814 -6.81583,7.26064 -8.59375,11.78125 -1.44839,3.68274 -1.12702,7.83379 -1.40625,11.78125 -0.40749,5.76064 -1.44339,11.63715 -0.375,17.3125 0.83437,4.43223 2.42219,8.93715 5.1875,12.5 3.28467,4.23201 7.86682,7.67405 12.84375,9.65625 6.29003,2.50518 13.51983,3.48833 20.1875,2.3125 5.24307,-0.9246 9.84593,-4.18007 14.28125,-7.125 5.94336,-3.94625 12.66917,-7.76708 16.25,-13.9375 2.22074,-3.82673 2.31854,-8.61055 2.5,-13.03125 0.25046,-6.10149 0.10437,-12.47478 -1.96875,-18.21875 -2.0849,-5.77662 -5.56725,-11.26242 -10.15625,-15.34375 -4.23686,-3.76815 -9.67216,-6.37183 -15.1875,-7.6875 -2.31597,-0.55247 -4.69406,-0.67745 -7.09375,-0.59375 z m -6.34375,17.60714 c 4.95803,0.17137 9.97839,-0.31 14.875,0.48661 1.22311,0.19898 2.49423,0.4345 3.5625,1.0625 3.08622,1.81429 5.77988,4.47058 7.6875,7.5 1.97466,3.1359 3.43735,6.82753 3.5625,10.53125 0.14993,4.43679 -1.09676,9.08372 -3.40625,12.875 -2.21379,3.63418 -5.5579,6.88517 -9.46875,8.5625 -5.86585,2.51582 -12.7854,2.40822 -19.09375,1.4375 -4.43543,-0.68252 -9.47472,-1.6854 -12.5,-5 -2.80614,-3.0745 -2.96248,-7.84966 -3.5625,-11.96875 -0.56607,-3.88607 -0.96037,-7.97341 0,-11.78125 1.00983,-4.00394 2.90804,-8.03423 5.875,-10.90625 1.63007,-1.57791 3.87614,-2.55256 6.09375,-3.03125 2.07853,-0.44867 4.24986,0.15869 6.375,0.23214 z"
       id="path3804"
       inkscape:connector-curvature="0"
       sodipodi:nodetypes="sssssssssssssssssaaaaaaaaaaaaaa" />
    <path
       style="fill:#ffffff;fill-opacity:1;stroke:#000000;stroke-width:4;stroke-linecap:butt;stroke-linejoin:miter;stroke-miterlimit:4;stroke-opacity:1;stroke-dasharray:none"
       d="m 287.95883,240.53187 c 1.42404,-1.94494 3.75473,-4.59458 6.07142,-3.92857 2.84082,0.81668 2.2946,5.46295 3.75,8.0357 1.62574,2.87386 3.29213,5.79182 5.53572,8.21429 2.47617,2.67359 5.06108,5.80749 8.57143,6.78572 4.10365,1.14356 9.0188,0.57317 12.67857,-1.60715 2.89499,-1.7247 4.72306,-5.05404 5.89286,-8.21428 1.90818,-5.15502 1.46075,-10.93181 1.42857,-16.42857 -0.0567,-9.68961 -1.85119,-19.29116 -2.85714,-28.92858 -0.62168,-5.95593 -1.63642,-11.87784 -1.96429,-17.85714 -0.14014,-2.55568 -1.34562,-5.50131 0,-7.67857 1.32951,-2.1512 4.28014,-3.73547 6.78571,-3.39287 1.67016,0.22838 2.92574,1.92244 3.75001,3.39286 1.56984,2.80044 1.35601,6.28275 1.78571,9.4643 1.16709,8.64132 1.25248,17.39722 2.14286,26.07142 0.84511,8.23312 2.93006,16.36716 3.03571,24.64286 0.0863,6.75743 1.2118,14.21344 -1.96429,20.17857 -3.29888,6.19577 -9.87856,10.44754 -16.24999,13.39286 -4.61034,2.13121 -9.97743,3.43415 -15.00001,2.67857 -4.50165,-0.67721 -8.39958,-3.65936 -12.14285,-6.25 -2.77222,-1.9186 -5.53454,-4.04652 -7.5,-6.78571 -2.00489,-2.79414 -3.45688,-6.08731 -4.10714,-9.46429 -0.77693,-4.03474 -1.47994,-9.81236 0.35714,-12.32142 z"
       id="path3809"
       inkscape:connector-curvature="0"
       sodipodi:nodetypes="saaaaaaaaaaaaaaaaaaaaas" />
    <path
       style="fill:#ffffff;fill-opacity:1;stroke:#000000;stroke-width:4;stroke-linecap:butt;stroke-linejoin:miter;stroke-miterlimit:4;stroke-opacity:1;stroke-dasharray:none"
       d="m 404.56597,178.80361 c -0.88337,-0.0345 -1.78007,0.0257 -2.625,0.1875 -7.65458,1.46573 -14.05873,7.51518 -19.125,13.4375 -5.56808,6.50891 -8.76374,14.8947 -11.34375,23.0625 -2.76554,8.75515 -3.4146,18.07529 -4.25,27.21875 -0.65707,7.19166 -2.40484,14.66543 -0.59375,21.65625 0.73421,2.83407 1.76029,6.4511 4.46875,7.5625 0.96741,0.39697 2.1803,-0.25107 3.0625,-0.8125 1.61548,-1.02808 2.9134,-2.64134 3.65625,-4.40625 1.84613,-4.38619 1.01026,-9.44784 1.4375,-14.1875 0.49848,-5.53008 -0.28958,-15.41793 1.3125,-16.625 1.04372,-0.78639 2.51676,-0.8302 3.8125,-1 5.25834,-0.68908 10.60617,-0.18466 15.90625,0 7.25263,0.2527 21.3307,-0.1941 21.71875,1.5 1.10853,4.83948 0.54239,14.17157 2,21.0625 1.02387,4.8404 0.16694,12.05192 4.6875,14.0625 1.92046,0.85415 4.51307,-0.8551 5.78125,-2.53125 2.12327,-2.80632 1.3788,-6.91894 1.4375,-10.4375 0.14005,-8.39783 -0.93685,-16.82856 -2.59375,-25.0625 -2.27055,-11.28344 -6.07383,-21.99409 -10,-33.0625 -2.46839,-6.95875 -5.36441,-14.65661 -11.3125,-19.03125 -2.07908,-1.5291 -4.78738,-2.49038 -7.4375,-2.59375 z m -3.40625,17.3125 c 1.52793,-0.0823 3.09767,0.27023 4.375,1.03125 2.59789,1.54779 3.72795,4.77638 5.375,7.3125 1.79346,2.76156 3.63936,5.52314 4.90625,8.5625 0.90286,2.16603 2.02478,4.43269 1.875,6.78125 -0.0452,0.70919 -4.35624,0.41591 -6.53125,0.5625 -3.38987,0.22847 -6.76788,0.28154 -10.15625,0.53125 -3.45849,0.25488 -6.99323,0.20081 -10.375,0.96875 -1.51505,0.34404 -2.83268,1.43795 -4.375,1.625 -0.80264,0.0974 -2.64034,0.49264 -2.40625,-0.28125 1.84878,-6.11193 4.10393,-10.0553 6.53125,-14.90625 1.48507,-2.96787 2.71815,-6.16107 4.90625,-8.65625 1.20485,-1.37393 2.60699,-2.85046 4.375,-3.3125 0.47951,-0.12531 0.99069,-0.19132 1.5,-0.21875 z"
       id="path3811"
       inkscape:connector-curvature="0" />
    <path
       style="fill:#f9cd24;fill-opacity:1;stroke:#000000;stroke-width:4;stroke-linecap:butt;stroke-linejoin:miter;stroke-miterlimit:4;stroke-opacity:1;stroke-dasharray:none"
       d="m 470.28026,175.35329 c -5.80224,2.38549 -11.24508,5.95455 -15.71429,10.35714 -2.4111,2.37516 -4.19508,5.36849 -5.71428,8.39286 -2.20537,4.39037 -3.96411,9.0908 -4.82144,13.92857 -1.18426,6.68264 -1.12726,13.61422 -0.35714,20.35715 0.83547,7.31513 2.15024,14.80098 5.35715,21.42857 2.42172,5.00486 6.12596,9.40774 10.17857,13.21429 4.18761,3.93335 8.97899,7.44146 14.28571,9.64285 6.89018,2.85825 14.51091,3.98362 21.96429,4.28571 6.40372,0.25955 13.15504,0.23359 19.10714,-2.14286 4.85368,-1.93789 8.35659,-6.27904 12.5,-9.46428 2.45439,-1.88681 6.23206,-2.81647 7.32143,-5.71429 1.4501,-3.85736 -0.21339,-8.60193 -2.32143,-12.14285 -1.29829,-2.18078 -4.49226,-5.5561 -5.89286,-4.82143 -1.39926,0.73396 -9.90278,9.67018 -16.07142,12.5 -6.0161,2.75985 -12.8677,4.47193 -19.46429,3.92857 -5.83932,-0.48098 -11.33865,-3.34799 -16.42857,-6.25 -4.23167,-2.41268 -8.75629,-5.03443 -11.42857,-9.10714 -3.01005,-4.58751 -3.78954,-10.42849 -4.28572,-15.89286 -0.52391,-5.76968 -0.41622,-11.82958 1.42857,-17.32143 1.66159,-4.94648 4.56791,-9.66486 8.39286,-13.21428 4.25539,-3.94886 9.66076,-7.09487 15.35714,-8.21429 5.1085,-1.00389 10.67015,-0.24511 15.53572,1.60714 4.66258,1.77498 8.18655,5.71063 12.14286,8.75 2.6835,2.06157 5.14581,4.40375 7.85714,6.42858 1.44185,1.07678 2.66878,3.15639 4.46428,3.03571 3.11216,-0.20917 6.03307,-3.27306 6.96429,-6.25 2.26905,-7.25374 -0.5256,-8.4835 -2.85715,-11.78571 -3.19951,-4.53154 -9.08579,-6.40174 -13.92857,-9.10715 -3.90531,-2.1817 -7.9221,-4.23219 -12.14285,-5.71428 -4.33176,-1.52107 -8.80853,-2.96574 -13.39286,-3.21429 -5.15318,-0.27939 -10.26421,1.13035 -15.35714,1.96429 -0.89857,0.14714 -1.83643,0.18948 -2.67857,0.53571 z"
       id="path3816"
       inkscape:connector-curvature="0"
       sodipodi:nodetypes="aaaaaaaaaaaaasaaaaaaaaaaaasaaaaaa" />
    <path
       style="fill:#000000;fill-opacity:1;stroke:#000000;stroke-width:1px;stroke-linecap:butt;stroke-linejoin:miter;stroke-opacity:1"
       d="m 466.70883,185.71043 c -1.23963,-0.92652 -3.06694,0.83194 -4.28572,1.78572 -1.57507,1.2326 -3.06383,2.88688 -3.57142,4.82143 -0.36538,1.39255 -0.76959,3.67835 0.53571,4.28571 2.38009,1.10747 5.23159,-2.04983 6.60714,-4.28571 1.16076,-1.88675 2.48866,-5.28095 0.71429,-6.60715 z"
       id="path3818"
       inkscape:connector-curvature="0"
       sodipodi:nodetypes="aaaaaa" />
    <path
       style="fill:#000000;fill-opacity:1;stroke:#000000;stroke-width:1px;stroke-linecap:butt;stroke-linejoin:miter;stroke-opacity:1"
       d="m 476.35169,180.53186 c -0.67771,0.75144 -0.67771,2.28428 0,3.03572 1.16227,1.2887 3.50614,0.99895 5.17857,0.53571 1.72092,-0.47667 3.48712,-1.61709 4.28571,-3.21428 0.21296,-0.42592 0.35699,-1.11343 0,-1.42858 -1.0793,-0.95279 -2.85532,0.37235 -4.28571,0.53572 -1.72419,0.19692 -4.0163,-0.75299 -5.17857,0.53571 z"
       id="path3820"
       inkscape:connector-curvature="0"
       sodipodi:nodetypes="aaaaaaa" />
    <path
       style="fill:#000000;fill-opacity:1;stroke:#000000;stroke-width:1px;stroke-linecap:butt;stroke-linejoin:miter;stroke-opacity:1"
       d="m 494.56597,180.35329 c -1.00653,0.10413 -2.57023,0.42248 -2.67857,1.42857 -0.16728,1.55345 2.12586,2.44283 3.57143,3.03572 1.49101,0.61152 3.29894,0.88545 4.82143,0.35714 0.91543,-0.31766 2.29679,-1.00762 2.14285,-1.96429 -0.2074,-1.28888 -2.34661,-1.15543 -3.57142,-1.60714 -1.39617,-0.51491 -2.80552,-1.40312 -4.28572,-1.25 z"
       id="path3822"
       inkscape:connector-curvature="0"
       sodipodi:nodetypes="aaaaaaa" />
    <path
       style="fill:#000000;fill-opacity:1;stroke:#000000;stroke-width:1px;stroke-linecap:butt;stroke-linejoin:miter;stroke-opacity:1"
       d="m 510.10168,185.71044 c -0.77357,0.019 -1.71362,0.249 -2.14285,0.89285 -0.42923,0.64385 -0.35185,1.63224 0,2.32143 0.96906,1.8982 3.32218,2.70308 5.17857,3.75 1.46371,0.82546 3.1055,2.64279 4.64286,1.96429 0.98172,-0.43328 1.33148,-1.99462 1.07143,-3.03572 -0.23482,-0.94009 -1.4565,-1.2803 -2.14286,-1.96428 -0.74593,-0.74335 -1.26516,-1.73951 -2.14286,-2.32143 -1.31818,-0.87397 -2.88318,-1.64607 -4.46429,-1.60714 z"
       id="path3824"
       inkscape:connector-curvature="0"
       sodipodi:nodetypes="aaaaaaaaa" />
    <path
       style="fill:#000000;fill-opacity:1;stroke:#000000;stroke-width:1px;stroke-linecap:butt;stroke-linejoin:miter;stroke-opacity:1"
       d="m 455.10169,245.71044 c -1.41527,1.82756 0.14148,4.86572 1.42857,6.78571 1.00203,1.49476 2.78058,2.40048 4.46428,3.03571 0.89801,0.3388 2.28609,1.12857 2.85715,0.35715 1.47433,-1.99161 -1.97544,-4.54608 -3.03572,-6.78572 -0.56952,-1.20299 -0.63791,-2.89757 -1.78571,-3.57142 -1.13046,-0.66367 -3.12595,-0.85787 -3.92857,0.17857 z"
       id="path3826"
       inkscape:connector-curvature="0"
       sodipodi:nodetypes="aaaaaaa" />
    <path
       style="fill:#000000;fill-opacity:1;stroke:#000000;stroke-width:1px;stroke-linecap:butt;stroke-linejoin:miter;stroke-opacity:1"
       d="m 473.49454,259.46043 c -1.03252,-0.1206 -2.34847,-0.0657 -3.03571,0.71429 -0.75181,0.85324 -0.90348,2.39549 -0.35714,3.39286 0.95916,1.75099 3.42225,2.18645 5.35714,2.67857 1.67392,0.42574 3.76018,1.16419 5.17857,0.17857 0.92745,-0.64448 1.33091,-2.11512 1.07143,-3.21429 -0.25143,-1.06506 -1.33967,-1.838 -2.32143,-2.32142 -1.23863,-0.6099 -2.78681,-0.1321 -4.10714,-0.53572 -0.63643,-0.19455 -1.12472,-0.81565 -1.78572,-0.89286 z"
       id="path3828"
       inkscape:connector-curvature="0"
       sodipodi:nodetypes="aaaaaaaaa" />
    <path
       style="fill:#000000;fill-opacity:1;stroke:#000000;stroke-width:1px;stroke-linecap:butt;stroke-linejoin:miter;stroke-opacity:1"
       d="m 495.45883,264.28186 c -1.23805,0.1824 -2.80137,-0.63761 -3.75,0.17857 -0.69023,0.59386 -0.99275,1.89104 -0.53572,2.67858 0.66135,1.13962 2.45285,1.01865 3.75,1.25 1.87609,0.3346 4.0513,1.10923 5.71429,0.17857 0.83756,-0.46872 1.40194,-1.54058 1.42857,-2.5 0.0258,-0.93134 -0.44417,-2.03236 -1.25,-2.5 -0.92812,-0.53861 -2.15329,0.018 -3.21428,0.17857 -0.72798,0.1102 -1.41445,0.42839 -2.14286,0.53571 z"
       id="path3830"
       inkscape:connector-curvature="0"
       sodipodi:nodetypes="aaaaaaaaa" />
    <path
       style="fill:#000000;fill-opacity:1;stroke:#000000;stroke-width:1px;stroke-linecap:butt;stroke-linejoin:miter;stroke-opacity:1"
       d="m 514.56597,258.21043 c -1.56671,0.46574 -3.03846,1.44189 -4.10714,2.67858 -0.55724,0.64484 -1.07143,1.46917 -1.07143,2.32142 0,0.85225 0.37861,1.82511 1.07143,2.32143 0.92446,0.66227 2.28252,0.60285 3.39286,0.35715 1.01665,-0.22496 1.91988,-0.894 2.67857,-1.60715 0.84212,-0.79157 1.5316,-1.78545 1.96428,-2.85714 0.40665,-1.00722 1.23782,-2.38549 0.53572,-3.21429 -0.96187,-1.13545 -3.03789,-0.42403 -4.46429,0 z"
       id="path3832"
       inkscape:connector-curvature="0"
       sodipodi:nodetypes="aaaaaaaaa" />
    <path
       style="fill:#000000;fill-opacity:1;stroke:#000000;stroke-width:1px;stroke-linecap:butt;stroke-linejoin:miter;stroke-opacity:1"
       d="m 518.1374,250.17472 c 0.88489,3.08463 1.92426,4.57102 3.03571,6.78571 1.03988,2.07208 1.91208,4.28757 3.39286,6.07143 0.59387,0.71542 1.22105,1.66411 2.14286,1.78572 0.84493,0.11147 1.98303,-0.28924 2.32143,-1.07143 0.44844,-1.03654 -0.59467,-2.19047 -1.07143,-3.21429 -0.91361,-1.96196 -2.49271,-3.56754 -3.39286,-5.53571 -0.57156,-1.24971 -0.67566,-2.68013 -1.25,-3.92857 -0.61443,-1.33557 -0.85231,-3.69526 -2.32143,-3.75 -0.80905,-0.0301 -0.83635,1.41224 -1.42857,1.96428 -0.41076,0.3829 -1.58342,0.35308 -1.42857,0.89286 z"
       id="path3834"
       inkscape:connector-curvature="0"
       sodipodi:nodetypes="saaaaaaaaas" />
    <path
       style="fill:#000000;fill-opacity:1;stroke:#000000;stroke-width:1px;stroke-linecap:butt;stroke-linejoin:miter;stroke-opacity:1"
       d="m 516.8874,203.74615 c -0.46895,-1.39333 1.48528,-2.54082 2.32143,-3.75 0.55526,-0.80298 1.27279,-1.49077 1.78571,-2.32143 1.077,-1.74418 1.68747,-3.74132 2.67857,-5.53571 0.543,-0.9831 0.6634,-2.81552 1.78572,-2.85714 1.10644,-0.041 1.19798,1.87939 1.96428,2.67856 0.26379,0.2751 0.84486,0.33618 0.89286,0.71429 0.18742,1.47624 -1.80297,2.3682 -2.67857,3.57143 -0.7288,1.0015 -1.48123,1.98862 -2.14286,3.03571 -0.5837,0.92375 -1.06821,1.90658 -1.60714,2.85715 -0.71006,1.25241 -0.70552,3.83219 -2.14285,3.75 -0.45258,-0.0259 -0.20919,-0.93556 -0.53572,-1.25 -0.59719,-0.57508 -2.05697,-0.1071 -2.32143,-0.89286 z"
       id="path3836"
       inkscape:connector-curvature="0"
       sodipodi:nodetypes="aaaaaaaaaaaaa" />
    <path
       style="fill:#ffffff;fill-opacity:1;stroke:#000000;stroke-width:4;stroke-linecap:butt;stroke-linejoin:miter;stroke-miterlimit:4;stroke-opacity:1;stroke-dasharray:none"
       d="m 545.20954,182.3683 c 1.00524,-2.19617 2.97018,-3.85098 4.79822,-5.42957 1.69204,-1.46115 3.43374,-4.13373 5.61898,-3.6618 1.41519,0.30563 1.89682,2.2822 2.33597,3.66181 1.31651,4.13586 0.42831,8.67012 0.63135,13.00571 0.24711,5.27648 0.5511,10.55094 0.71429,15.83068 0.13011,4.20992 0.36655,8.5895 0.21106,12.63402 6.19983,-2.75389 11.45626,-5.09335 17.06799,-7.88284 4.80548,-2.38872 9.38139,-5.22482 14.20527,-7.57615 5.27631,-2.57185 10.77248,-4.66867 16.0993,-7.1342 6.80785,-3.15102 13.63449,-6.27925 20.26619,-9.78586 3.65059,-1.93029 7.0696,-4.28105 10.73287,-6.18718 1.23609,-0.64318 2.47718,-2.24019 3.78807,-1.76777 1.66495,0.60002 2.09846,3.03707 2.27285,4.79823 0.077,0.77713 -0.53071,1.49281 -0.56821,2.27284 -0.0613,1.27535 1.00904,2.58977 0.56821,3.78807 -1.05057,2.85575 -4.40733,4.22673 -6.88167,5.99779 -4.94574,3.54001 -10.44704,6.23684 -15.78363,9.1545 -7.95291,4.34806 -15.88575,8.78361 -24.18053,12.4375 -7.92775,3.49222 -14.04802,5.05624 -24.36993,9.02824 5.00366,1.73321 6.29096,3.084 9.34391,4.79823 5.59242,3.14015 10.99683,6.60629 16.41498,10.03839 5.8678,3.71693 11.95037,7.1526 17.42514,11.42735 3.52153,2.74965 7.67542,5.18787 9.84898,9.09137 1.51195,2.71531 2.87772,6.2516 1.76776,9.15451 -0.9816,2.56724 -3.82288,4.81531 -6.56598,4.98763 -10.40773,0.65381 -18.25421,-10.11026 -27.08472,-15.65737 -4.11731,-2.58639 -9.61972,-5.75164 -12.0587,-8.20748 -3.91146,-3.93853 -9.55658,-6.14385 -13.95273,-9.72273 -2.94389,-2.3966 -4.71838,-4.64425 -8.27062,-7.82868 -0.38279,5.46995 -0.90338,7.52823 -1.13643,11.31006 -0.28207,4.57731 -0.15187,9.17129 -0.31567,13.75436 -0.0775,2.16878 0.77204,4.62494 -0.31567,6.50285 -1.25231,2.16209 -3.81565,3.97794 -6.31345,4.04061 -2.03538,0.0511 -4.14675,-1.3548 -5.30331,-3.03045 -0.91979,-1.33262 -0.41154,-3.21642 -0.75761,-4.79823 -0.59805,-2.7336 -1.90178,-5.30768 -2.27284,-8.08122 -1.0242,-7.65551 0.18008,-15.44666 0.18941,-23.17037 0.0132,-10.96454 -0.20173,-22.2039 -0.18941,-32.8931 0.006,-5.01203 -0.0657,-10.34244 2.02031,-14.89975 z"
       id="path3838"
       inkscape:connector-curvature="0"
       sodipodi:nodetypes="aaaaaacaaaaaaaaaaaacaaaaaaasacaaaaaaaasa" />
    <path
       style="fill:#ffffff;fill-opacity:1;stroke:#000000;stroke-width:4;stroke-linecap:butt;stroke-linejoin:miter;stroke-miterlimit:4;stroke-opacity:1;stroke-dasharray:none"
       d="m 80.117726,298.0939 c -2.11493,0.0151 -3.70565,2.41182 -4.67195,4.29315 -0.39714,0.77321 -0.2702,1.72048 -0.31568,2.58852 -0.26429,5.04455 0.19335,10.10117 0.25254,15.15229 0.10925,9.32244 0.12736,18.64572 0.1894,27.96859 0.0214,3.21986 -0.0349,6.44115 0.0631,9.65959 0.0943,3.09673 0.32858,6.18763 0.50508,9.28077 0.16093,2.82045 -8.5e-4,5.68067 0.50507,8.46003 0.56026,3.07797 1.43336,6.14023 2.77792,8.9651 0.48915,1.0277 0.79612,2.54102 1.89403,2.84106 1.26206,0.34489 2.55863,-0.83435 3.53553,-1.70463 1.11601,-0.99421 2.01495,-2.34366 2.39912,-3.78807 0.96923,-3.6441 -0.39608,-7.53188 -0.50508,-11.30109 -0.0462,-1.59888 -0.0116,-3.1995 -0.0631,-4.79822 -0.0794,-2.4642 -0.57572,-5.51679 -0.37881,-7.38674 5.04596,-0.59422 12.15981,-0.63437 18.245884,-0.69448 3.45176,-0.0341 6.90378,0.29602 10.35406,0.1894 3.4186,-0.10564 7.33009,-1.17182 10.2278,-0.82075 0.31801,3.10239 0.0417,7.91355 0.12627,11.8693 0.0981,4.58909 -0.20719,9.21932 0.44194,13.76332 0.43022,3.01156 -0.48696,7.559 2.27285,8.83884 1.97247,0.91472 4.15243,-1.50984 5.8715,-2.84106 0.72011,-0.55764 1.86963,-1.21025 1.76777,-2.08344 -1.57795,-13.52628 -0.70548,-26.34605 -0.88388,-39.52221 -0.1208,-8.9223 -0.33981,-17.84849 -0.12627,-26.76905 0.11499,-4.80349 1.18015,-9.60842 0.75762,-14.39467 -0.22041,-2.49675 0.20353,-5.69842 -1.70463,-7.32361 -0.93146,-0.79332 -2.54586,-0.75415 -3.66181,-0.25254 -1.69699,0.76279 -2.76911,2.67248 -3.40926,4.41942 -0.79733,2.17584 -0.2459,4.62853 -0.31568,6.9448 -0.17113,5.68016 -0.17479,11.36413 -0.25254,17.04633 -0.0688,5.02964 -0.3373,10.84684 -0.18939,15.08915 -8.96253,1.09847 -12.49848,0.83503 -18.75096,1.19955 -7.195084,0.41947 -16.439554,0.90239 -21.592024,1.13642 -1.64428,-11.07474 0.31481,-25.65485 -1.01015,-38.38579 -0.15724,-1.51086 -0.0772,-3.15795 -0.82074,-4.48255 -0.77337,-1.37768 -1.95568,-3.16803 -3.53553,-3.15673 z"
       id="path3840"
       inkscape:connector-curvature="0"
       sodipodi:nodetypes="aaaaaaaaaaaaaacaacaaaasaaaaaaaacacaaa" />
    <path
       style="fill:#ffffff;fill-opacity:1;stroke:#000000;stroke-width:4;stroke-linecap:butt;stroke-linejoin:miter;stroke-miterlimit:4;stroke-opacity:1;stroke-dasharray:none"
       d="m 173.50347,297.00634 c -2.39531,0.0479 -4.73018,-0.36209 -6.84375,0.76602 -2.91146,1.55398 -5.55481,3.65537 -7.8125,6.0625 -2.36389,2.52036 -4.13948,5.57031 -5.8125,8.59375 -1.91601,3.46256 -3.71622,7.03243 -4.78125,10.84375 -1.23361,4.4146 -1.40034,9.08838 -1.78125,13.65625 -0.56002,6.71577 -0.82463,13.44883 -0.75,20.1875 0.0626,5.64972 -0.65831,11.53628 1,16.9375 1.98302,6.45885 5.41294,12.78713 10.34375,17.40625 3.79152,3.55184 8.75221,6.4403 13.90625,7.09375 5.38953,0.68332 11.09637,-1.03684 15.90625,-3.5625 4.27164,-2.24302 7.9022,-5.83955 10.59375,-9.84375 2.259,-3.3607 2.86312,-7.56265 4.3125,-11.34375 1.16382,-3.03613 2.78751,-5.9284 3.53125,-9.09375 1.06337,-4.52571 1.17009,-9.25798 1.25,-13.90625 0.1029,-5.98533 -0.21902,-12.00245 -1,-17.9375 -0.53847,-4.09209 -1.33281,-8.14421 -2.53125,-12.09375 -1.37075,-4.51741 -2.5927,-9.29766 -5.3125,-13.15625 -1.75199,-2.48555 -4.23904,-4.44239 -6.8125,-6.0625 -2.3947,-1.50757 -5.14422,-2.3391 -7.8125,-3.28125 -3.14015,-1.10876 -6.26427,-1.33258 -9.59375,-1.26602 z m -0.28125,15.32852 c 1.37231,0.004 2.74838,0.12732 4.0625,0.34375 2.6397,0.43476 5.10967,1.76317 7.3125,3.28125 2.94074,2.02662 5.78258,4.48439 7.59375,7.5625 2.1755,3.69729 3.05273,8.11193 3.53125,12.375 0.6865,6.1159 -0.12109,12.34627 -1,18.4375 -0.88937,6.16374 -1.44086,12.66153 -4.3125,18.1875 -1.40224,2.69837 -3.40264,5.33853 -6.0625,6.8125 -4.40612,2.44168 -9.96656,3.5187 -14.90625,2.53125 -4.48872,-0.8973 -8.91909,-3.59767 -11.59375,-7.3125 -2.27855,-3.16467 -2.41425,-7.49271 -2.78125,-11.375 -0.30938,-3.27272 0.30401,-6.56229 0.5,-9.84375 0.22134,-3.70589 0.43899,-7.42556 0.75,-11.125 0.35436,-4.21509 0.36321,-8.49586 1.28125,-12.625 0.71649,-3.22261 1.60931,-6.49715 3.28125,-9.34375 1.47992,-2.51966 3.17696,-5.23716 5.78125,-6.5625 1.97826,-1.00676 4.27532,-1.34997 6.5625,-1.34375 z"
       id="path3842"
       inkscape:connector-curvature="0"
       sodipodi:nodetypes="ssssssssssssssssssssssssssssssssssssss" />
    <path
       style="fill:#ffffff;fill-opacity:1;stroke:#000000;stroke-width:4;stroke-linecap:butt;stroke-linejoin:miter;stroke-miterlimit:4;stroke-opacity:1;stroke-dasharray:none"
       d="m 247.71776,299.94647 c -2.90376,-0.0115 -5.84634,0.2026 -8.71875,0.4375 -3.86897,0.31639 -7.19651,2.57908 -10.87054,1.32589 -0.75954,-0.25908 -0.79421,-1.7436 -1.59375,-1.8125 -2.18526,-0.18822 -4.45006,2.08175 -5.125,4.125 -0.96672,2.92657 0.92795,12.49751 1.03125,18.75 0.12379,7.49284 -0.5621,14.97515 -0.5,22.46875 0.0894,10.78281 0.48226,21.55669 1.25,32.3125 0.41613,5.82991 -0.90951,10.71722 1.8125,17.4375 0.48343,1.19351 2.55522,0.66445 3.71875,0.25 1.74994,-0.62333 3.24168,-2.13056 4.09375,-3.78125 1.40318,-2.71836 0.9853,-6.07064 1.15625,-9.125 0.31991,-5.71587 -0.006,-11.43664 -0.25,-17.15625 -0.12542,-2.94072 -0.21559,-5.62373 -0.625,-8.8125 4.78829,-0.0225 7.82718,4.9265 11.625,7.5625 5.24205,3.63841 10.5294,7.25997 15.40625,11.375 4.73211,3.99291 7.94845,9.8936 13.375,12.875 2.80937,1.54349 6.23184,3.05 9.34375,2.28125 1.85278,-0.4577 3.91708,-1.90784 4.28125,-3.78125 0.8367,-4.30426 -3.27731,-8.24872 -5.875,-11.78125 -3.37116,-4.58435 -8.20823,-7.90218 -12.3125,-11.84375 -3.56695,-3.42555 -7.67775,-7.30353 -10.6875,-10.25 6.19629,-2.37317 15.5984,-7.39956 19.6875,-14.4375 2.75643,-4.74421 3.04634,-10.98339 1.875,-16.34375 -1.27012,-5.81239 -5.39973,-10.36842 -9.78571,-14.38839 -3.76266,-3.44866 -8.79624,-5.52077 -13.75,-6.75 -2.79717,-0.6941 -5.65874,-0.92603 -8.5625,-0.9375 z m -17.52679,13.07589 c 1.87315,0.21716 4.41062,0.55434 6.625,0.78125 2.33754,0.23954 4.71917,0.20575 7.03125,0.625 2.65733,0.48185 5.24672,1.34469 7.8125,2.1875 2.6814,0.88079 5.39689,1.70818 7.90625,3 2.73547,1.40822 5.71748,2.76176 7.6875,5.125 1.05847,1.26974 2.40627,2.93714 1.96875,4.53125 -0.91776,3.34389 -5.31192,4.62343 -8.4375,6.125 -2.99631,1.43946 -6.37784,1.91375 -9.625,2.625 -2.68131,0.5873 -5.3865,1.15671 -8.125,1.34375 -3.51433,0.24003 -9.95702,0.33911 -10.5625,-0.28125 -1.09411,-1.12097 -0.94139,-3.01091 -1.15625,-4.5625 -0.42802,-3.0908 -0.0643,-6.22728 -0.21875,-9.34375 -0.20086,-4.05357 -1.16504,-9.58347 -0.90625,-12.15625 z"
       id="path3847"
       inkscape:connector-curvature="0"
       sodipodi:nodetypes="ssscssssssssscssssssscssssscssssssssssssc" />
    <path
       style="fill:#ffffff;fill-opacity:1;stroke:#000000;stroke-width:4;stroke-linecap:butt;stroke-linejoin:miter;stroke-miterlimit:4;stroke-opacity:1;stroke-dasharray:none"
       d="m 362.64476,307.87976 c -0.72831,-1.85843 -2.71658,-2.99919 -4.41941,-4.04061 -2.56777,-1.57041 -5.51473,-2.53633 -8.46003,-3.15673 -3.54797,-0.74734 -7.23497,-0.74086 -10.85914,-0.63135 -3.55887,0.10754 -7.2096,0.19613 -10.60659,1.26269 -4.09601,1.28602 -7.7787,3.69974 -11.36422,6.06092 -2.47592,1.63047 -4.85297,3.45516 -6.9448,5.55584 -2.19854,2.20783 -4.39525,4.54671 -5.80838,7.3236 -1.06986,2.10234 -1.73686,4.46488 -1.89404,6.81854 -0.18402,2.75579 0.0684,5.6604 1.13643,8.20748 1.25332,2.98905 3.12939,6.0789 5.93464,7.70242 2.97781,1.72339 6.82244,0.89804 10.2278,1.38896 4.97262,0.71686 9.97767,1.26581 14.89974,2.27283 4.13056,0.84509 8.36878,1.50554 12.24811,3.15674 2.72994,1.16198 5.25959,2.81821 7.57614,4.67195 1.97534,1.5807 4.06977,3.22073 5.3033,5.42957 0.84613,1.51515 1.34386,3.31726 1.26269,5.05076 -0.14818,3.16474 -1.06087,6.5892 -3.15672,8.96511 -1.68101,1.90564 -4.33719,2.86132 -6.81853,3.40926 -2.83706,0.62649 -5.82734,0.0893 -8.71257,-0.25254 -3.45935,-0.40985 -6.93167,-1.01936 -10.22779,-2.14657 -3.09922,-1.05988 -5.90083,-2.84519 -8.83884,-4.29315 -1.94166,-0.95692 -3.8085,-2.07581 -5.80837,-2.90418 -1.84452,-0.76402 -3.7114,-1.57424 -5.68211,-1.89404 -1.28793,-0.209 -2.88182,-0.79772 -3.91434,0 -1.5834,1.22333 -1.62259,3.81034 -1.51523,5.80838 0.14009,2.60715 1.34921,5.13827 2.77792,7.3236 1.61238,2.46628 3.87074,4.5393 6.31345,6.18718 2.70319,1.82361 5.84879,2.95443 8.9651,3.91435 4.13395,1.27339 8.46818,1.80766 12.75318,2.39911 3.30676,0.45642 6.63823,0.9691 9.97526,0.88388 2.42183,-0.0618 4.93441,-0.14511 7.19733,-1.01015 3.88186,-1.4839 7.25178,-4.17955 10.35407,-6.9448 2.2288,-1.98666 4.64858,-4.0673 5.80837,-6.81853 1.77332,-4.20663 1.4938,-9.07778 1.26269,-13.63706 -0.22147,-4.36929 -1.1575,-8.72389 -2.52538,-12.87945 -0.83002,-2.52155 -1.78329,-5.0989 -3.40926,-7.19733 -1.61078,-2.07882 -3.92868,-3.5114 -6.06092,-5.05077 -2.6515,-1.91424 -5.25435,-4.07611 -8.33376,-5.17703 -3.03807,-1.08614 -6.39896,-0.83181 -9.59645,-1.26269 -3.66336,-0.49365 -7.31156,-1.10691 -10.98541,-1.51522 -2.98067,-0.33127 -6.04767,-0.0628 -8.9651,-0.75762 -2.73717,-0.65186 -6.5394,-0.65578 -7.82868,-3.15673 -0.49584,-0.96183 0.16429,-2.25176 0.75761,-3.15672 2.1093,-3.21719 5.7088,-5.36763 9.21765,-6.9448 4.26888,-1.91879 9.09427,-2.45377 13.76333,-2.77792 5.55266,-0.38549 11.10634,1.2428 16.66751,1.01015 2.63461,-0.11022 6.02184,0.78416 7.82868,-1.13642 1.38913,-1.47658 1.24479,-4.17338 0.50507,-6.06091 z"
       id="path3852"
       inkscape:connector-curvature="0"
       sodipodi:nodetypes="aaaaaaaaaaaaaaaaaaaaaaaaaaaaaaaaaaaaaaaaaaaaaaaaa" />
    <path
       style="fill:#ffffff;fill-opacity:1;stroke:#000000;stroke-width:4;stroke-linecap:butt;stroke-linejoin:miter;stroke-miterlimit:4;stroke-opacity:1;stroke-dasharray:none"
       d="m 394.46457,301.44003 c -0.93416,-0.6805 -0.77852,-2.60191 -1.89403,-2.90419 -1.36259,-0.36923 -2.92105,0.77993 -3.78807,1.89404 -1.54139,1.98067 -1.29391,4.86538 -1.60994,7.35517 -0.32218,2.53834 -0.17485,5.11448 -0.2841,7.67085 -0.38154,8.92744 -1.02499,17.84393 -1.29705,26.77538 -0.10253,3.36588 -0.22179,6.73545 -0.12627,10.10153 0.1208,4.25692 0.54129,8.50046 0.8839,12.74529 0.30992,3.83989 0.39715,7.71348 1.05982,11.50844 0.6664,3.81632 0.49564,8.22741 2.9195,11.24955 1.32026,1.64612 3.33098,2.83166 5.63615,2.88252 3.65524,0.0806 15.16473,-0.34497 22.74639,-0.23087 5.73753,0.0863 13.85986,0.74638 17.20059,0.69262 1.67815,-0.027 2.73372,-1.97166 4.23188,-2.72825 1.0342,-0.52229 2.548,-0.31121 3.24972,-1.23314 1.94508,-2.55544 1.9357,-6.55438 0.89549,-9.59273 -0.3823,-1.11664 -1.28297,-1.82032 -2.42077,-2.58403 -2.44023,-1.63791 -12.83401,0.36682 -19.2452,0.13896 -6.45542,-0.22943 -12.8608,-1.39419 -19.31917,-1.51523 -2.06375,-0.0387 -4.63418,1.61222 -6.18719,0.25254 -0.71936,-4.53833 -0.744,-15.42494 -1.09046,-19.51043 4.9908,-0.45504 10.12377,-0.0315 15.18555,-0.005 5.78099,0.0303 11.70538,1.47093 17.3422,0.18754 2.07427,-0.47226 4.79514,-0.91051 5.7228,-2.82495 0.76509,-1.57895 -0.60736,-3.46317 -1.09633,-5.1482 -0.39826,-1.37243 -0.50367,-2.986 -1.49032,-4.01978 -1.46477,-1.53474 -3.78272,-2.04799 -5.85806,-2.4884 -4.98259,-1.05735 -10.185,-0.2542 -15.27855,-0.25254 -4.84913,0.002 -10.35096,0.13841 -14.54523,0.24992 -0.85727,-0.43365 -0.0433,-4.65973 -0.0497,-6.98967 -0.0118,-4.32961 -0.0374,-8.65963 0.0217,-12.98885 0.0224,-1.64189 -0.33743,-3.61246 0.12627,-4.9245 6.45638,0.61487 17.17358,3.43113 25.88516,4.04061 2.77147,0.1939 5.60178,0.37859 8.33376,-0.12627 2.29139,-0.42343 5.1657,-0.5366 6.56599,-2.39911 1.47048,-1.95589 0.83947,-4.89956 0.50508,-7.3236 -0.17101,-1.23968 -0.39219,-2.6365 -1.26269,-3.53553 -1.03845,-1.07249 -2.71727,-1.2848 -4.16688,-1.64151 -2.67194,-0.65748 -5.45837,-0.76591 -8.20749,-0.88389 -3.91165,-0.16786 -7.82825,0.31339 -11.74303,0.25254 -4.00357,-0.0622 -8.04228,0.004 -11.99556,-0.63134 -1.89524,-0.30472 -4.00428,-0.38498 -5.55584,-1.51523 z"
       id="path3854"
       inkscape:connector-curvature="0"
       sodipodi:nodetypes="caaaaaaaaasasaaasaaccaaaaaaacaacaaaaaaaaaac" />
    <path
       style="fill:#ffffff;fill-opacity:1;stroke:#000000;stroke-width:4;stroke-linecap:butt;stroke-linejoin:miter;stroke-miterlimit:4;stroke-opacity:1;stroke-dasharray:none"
       d="m 466.29001,386.77364 c -4.95577,-2.98578 -2.66654,-11.32198 -2.98187,-17.09909 -0.38936,-7.13339 0.77814,-14.26859 1.36204,-21.38869 0.73751,-8.99324 0.85142,-18.1037 2.70395,-26.93492 0.96912,-4.6199 1.55428,-9.68031 4.36711,-13.47118 1.50883,-2.03346 3.71592,-4.57391 6.23686,-4.33648 3.18293,0.29976 4.64848,4.40893 6.71393,6.84917 3.29989,3.89867 6.04915,8.23221 9.02003,12.38706 2.08896,2.92147 4.23021,5.80919 6.1909,8.81826 1.45029,2.22574 2.56123,5.65983 4.11721,6.82378 1.43531,-5.05112 5.62486,-12.54373 8.94607,-18.55258 1.51329,-2.7379 2.98236,-5.5491 4.98948,-7.9486 2.18971,-2.61778 4.55256,-5.30198 7.57352,-6.88987 2.1388,-1.1242 4.86209,-2.65777 7.05837,-1.65048 1.94419,0.89168 2.34977,3.6412 2.96918,5.68846 1.67432,5.53389 1.29128,11.49144 1.84437,17.24656 0.49105,5.10954 1.02585,10.21826 1.30865,15.34355 0.33515,6.07403 0.22271,12.16535 0.45912,18.24402 0.18673,4.80124 0.48607,9.59749 0.75761,14.39468 0.24475,4.32391 1.58945,11.23411 0.78563,12.96873 -0.49878,1.07633 -1.5414,1.83208 -2.49475,2.53807 -1.54837,1.14661 -3.40262,3.75949 -5.12473,2.67331 -2.0152,-1.27104 -1.87525,-8.969 -2.3595,-13.51714 -0.84264,-7.91426 -0.60906,-15.90634 -0.93881,-23.8585 -0.31067,-7.49176 -0.36494,-15.0003 -0.97952,-22.47327 -0.39812,-4.84091 0.10654,-12.32149 -1.75244,-14.46601 -2.57966,1.30521 -3.89831,6.50209 -5.57379,9.89758 -2.50539,5.07736 -4.12222,10.56534 -6.67541,15.61883 -2.21276,4.3797 -3.20111,10.25816 -7.4641,12.68819 -1.54833,0.88259 -3.72552,0.72515 -5.34662,-0.0153 -3.24366,-1.4816 -4.84276,-5.2477 -7.02775,-8.0659 -3.00445,-3.87513 -5.40585,-8.18855 -8.33376,-12.12183 -1.76727,-2.3741 -3.61093,-4.69579 -5.5659,-6.91788 -1.28071,-1.45569 -3.96594,-4.84808 -4.03055,-4.1938 -0.23698,2.39991 -1.26623,14.72978 -1.78307,22.10343 -0.51823,7.39341 -0.50191,14.82924 -1.32135,22.19534 -0.48868,4.39287 -0.44952,9.00221 -2.14023,13.08603 -0.52179,1.26037 -1.28588,2.5192 -2.3875,3.3237 -0.88363,0.6453 -2.18516,1.57744 -3.12238,1.01279 z"
       id="path3856"
       inkscape:connector-curvature="0"
       sodipodi:nodetypes="caaaaaaaacaaaaaaaaasasaaacaaaaaaasaaaaac" />
    <path
       style="fill:#ffffff;fill-opacity:1;stroke:#000000;stroke-width:4;stroke-linecap:butt;stroke-linejoin:miter;stroke-miterlimit:4;stroke-opacity:1;stroke-dasharray:none"
       d="m 581.40972,302.67861 c -1.52926,0.22888 -4.37053,2.69419 -5.375,3.53125 -1.07143,0.89285 -4.81697,6.50893 -5.53125,7.9375 -0.71429,1.42858 -3.125,8.75 -4.375,11.25 -1.25,2.5 -4.23661,9.29018 -4.59375,11.96875 -0.35714,2.67857 -1.87054,8.33929 -2.40625,10.125 -0.53571,1.78572 -3.32143,15.27233 -3.5,17.59375 -0.17857,2.32143 -0.5625,12.8125 -0.5625,15.3125 0,2.5 0.11607,10.63393 1.1875,12.0625 1.25,0.35714 6.5134,-3.54911 7.40625,-6.40625 0.89286,-2.85714 1.09375,-11.51786 1.09375,-14.375 0,-2.85714 1.25682,-13.49467 1.8125,-14.0625 0.84015,-0.85852 4.33036,0.3125 7.1875,0.3125 2.85714,0 4.65625,0.27232 8.40625,0.0937 3.75,-0.17857 12.21434,-0.24216 12.375,0.28125 0.22613,0.73673 0.183,5.78064 0.34375,8.0625 0.2285,3.24354 0.3616,6.78572 0.71875,10 0.35714,3.21429 1.41071,9.87054 2.125,12.90625 0.71428,3.03572 2.95982,3.72321 4.03125,3.1875 1.07143,-0.53571 1.55804,-1.20982 3.34375,-2.28125 1.78572,-1.07143 0.57589,-4.60268 0.21875,-7.28125 -0.35714,-2.67857 -1.37053,-9.1875 -1.90625,-12.9375 -0.53571,-3.75 -0.88393,-10.57589 -1.0625,-11.46875 -0.17857,-0.89285 0.37717,-0.23818 0.9375,-1.21875 1.07143,-1.875 0.29018,-5.66518 0.46875,-8.34375 0.17857,-2.67857 -1.24107,-2.68304 -2.3125,-3.21875 -1.07143,-0.53572 -0.79464,-5.37054 -1.6875,-8.40625 -0.89285,-3.03572 -3.30803,-13.8125 -4.46875,-16.3125 -1.06347,-2.29054 -5.72321,-10.83035 -7.6875,-13.6875 -1.96429,-2.85714 -3.55809,-4.48019 -5.875,-4.625 -0.0893,-0.006 -0.21055,-0.0153 -0.3125,0 z m -1.5625,16.6875 c 0.0619,-0.0226 0.109,-0.0189 0.15625,0 0.93175,0.37319 2.41343,2.54869 3.3125,4.03125 1.45899,2.4059 2.22556,5.1547 3.3125,7.75 1.20632,2.88032 2.56283,5.69785 3.5625,8.65625 0.44373,1.31314 1.43391,3.03333 1.0625,4.03125 -0.16376,0.44 -3.07624,0.1875 -4.625,0.1875 -3.09753,0 -6.19061,-0.16856 -9.28125,-0.375 -2.50573,-0.16738 -7.5869,0.0654 -7.5,-0.71875 0.0972,-0.87742 0.85947,-3.4511 1.40625,-5.15625 1.16153,-3.62226 2.26217,-7.3036 3.9375,-10.71875 1.24787,-2.54377 3.72809,-7.34828 4.65625,-7.6875 z"
       id="path3858"
       inkscape:connector-curvature="0" />
    <path
       style="fill:#ffffff;fill-opacity:1;stroke:#000000;stroke-width:4;stroke-linecap:butt;stroke-linejoin:miter;stroke-miterlimit:4;stroke-opacity:1;stroke-dasharray:none"
       d="m 627.24455,393.56757 c -1.18068,-0.58035 -1.92221,-1.90346 -2.41072,-3.125 -1.06667,-2.66722 -0.7683,-5.70152 -0.89286,-8.57142 -0.22716,-5.23393 -0.0361,-10.48426 0.26785,-15.71429 0.27937,-4.80716 0.96004,-9.58258 1.42858,-14.375 0.30256,-3.09476 0.53124,-6.19729 0.89285,-9.28571 0.63241,-5.40115 1.28107,-10.80648 2.23215,-16.16071 0.78308,-4.40845 1.89993,-8.75106 2.85714,-13.12501 0.32574,-1.48845 0.10466,-3.21864 0.98215,-4.46428 1.35535,-1.92399 3.64549,-4.03076 5.98214,-3.75001 1.52544,0.18329 2.26166,2.09813 3.21428,3.30358 1.61768,2.04701 2.97483,4.30175 4.19643,6.60714 1.92858,3.6396 3.10862,7.63544 4.91072,11.33929 1.74794,3.59253 3.63806,7.12237 5.71429,10.53571 2.1492,3.53331 4.73883,6.78207 6.96428,10.26786 1.96109,3.07171 3.64372,6.31628 5.625,9.375 1.6967,2.61938 3.51595,5.15866 5.35714,7.67857 1.87881,2.57141 3.59266,5.29714 5.80357,7.58929 0.91006,0.9435 1.83733,3.03127 3.03572,2.5 0.67475,-6.23718 1.14208,-9.69057 1.51785,-14.55358 0.31912,-4.12983 0.48701,-8.27086 0.625,-12.41071 0.24296,-7.28859 -0.008,-14.59151 0.35715,-21.875 0.16011,-3.19175 -0.5596,-6.66312 0.80357,-9.55357 0.74513,-1.57996 2.36012,-2.60255 3.75,-3.66071 0.65795,-0.50092 1.32276,-1.3561 2.14286,-1.25 1.25225,0.16201 2.10079,1.55583 2.67857,2.67857 0.91122,1.77067 0.83616,3.90683 0.98214,5.89285 0.35569,4.83896 -0.13286,9.70344 -0.26786,14.55358 -0.13341,4.79314 -0.2625,9.58779 -0.53571,14.375 -0.26534,4.649 -0.85119,9.27721 -1.07143,13.92857 -0.15768,3.33013 -0.1993,6.6662 -0.17857,10 0.0183,2.94772 0.27023,5.8915 0.26786,8.83928 -0.002,2.79904 -0.11698,7.49213 -0.26786,8.39286 -0.32337,1.93039 -2.14495,3.07481 -3.66072,4.10714 -1.49426,1.01768 -3.32671,2.27729 -5.08928,1.875 -3.75516,-0.85709 -5.50674,-5.3984 -8.03572,-8.30357 -2.7285,-3.13437 -5.28518,-6.42427 -7.67857,-9.82143 -2.37298,-3.3682 -4.12771,-7.1558 -6.60714,-10.44643 -1.75061,-2.32336 -4.07522,-4.17788 -5.80357,-6.51785 -2.72927,-3.69509 -4.87978,-7.78808 -7.14286,-11.78572 -1.50847,-2.66466 -2.90496,-5.39197 -4.28571,-8.125 -0.89435,-1.77027 -1.75582,-3.5574 -2.58929,-5.35714 -1.20384,-2.5995 -2.27181,-6.70203 -3.48214,-7.85714 -1.16133,1.38119 -2.24314,7.73781 -2.94643,11.69643 -0.59676,3.359 -0.83459,6.7752 -1.07143,10.17857 -0.18192,2.61424 -0.19238,5.23766 -0.26784,7.85714 -0.0729,2.52941 -0.10018,5.06004 -0.17857,7.58929 -0.072,2.32203 -0.23848,4.64132 -0.26785,6.96428 -0.0286,2.26192 0.0744,4.52367 0.0893,6.78572 0.0119,1.81543 0.33302,3.66175 0,5.44642 -0.439,2.35259 -1.30313,4.67821 -2.58928,6.69643 -0.57692,0.90529 -1.29781,1.79283 -2.23214,2.32143 -0.93001,0.52616 -2.06321,0.59448 -3.125,0.71428 -2e-5,0 -3e-5,1e-5 -4e-5,0 z"
       id="path3863"
       inkscape:connector-curvature="0"
       sodipodi:nodetypes="aaaaaaaaaaaaaaaaaacaaaaaaaaaaaaasaaaaaaaaacaaaaaaaaaaa" />
  </g>
</svg>
