<?xml version="1.0" encoding="utf-8"?>
<!-- Generator: Adobe Illustrator 23.0.4, SVG Export Plug-In . SVG Version: 6.00 Build 0)  -->
<svg version="1.1" id="Layer_1" xmlns="http://www.w3.org/2000/svg" xmlns:xlink="http://www.w3.org/1999/xlink" x="0px" y="0px"
	 viewBox="0 0 841.89 595.28" style="enable-background:new 0 0 841.89 595.28;" xml:space="preserve">
<style type="text/css">
	.st0{fill:#EA2A2D;}
</style>
<g>
	<g>
		<path class="st0" d="M269.1,234.55c1.87,2.66,3.18,5.58,3.94,8.77l2-0.72l-4.48-27.67c-0.89,0.66-1.82,1.16-2.77,1.49
			c-0.96,0.33-1.7,0.51-2.24,0.54c-0.54,0.03-1.14,0.04-1.8,0.04h-40.09c-0.13,0-0.78,0-1.94,0c-0.09,0-0.46-0.03-1.1-0.08
			c-0.65-0.05-1.15-0.16-1.5-0.32c-0.89-0.48-1.63-1.04-2.21-1.68l-4.81,27.67l2,0.48c0.4-1.81,1.27-3.99,2.61-6.54
			c1.11-2.13,2.23-3.75,3.34-4.87c2.23-2.13,4.3-3.63,6.21-4.51c1.91-0.88,4.21-1.32,6.88-1.32v56.89c0,2.28-0.09,3.98-0.27,5.09
			c-0.18,1.11-0.74,2.2-1.67,3.26c-1.56,1.75-3.21,2.62-4.94,2.62c-0.4,0-0.71,0.03-0.94,0.08v3.03h36.62v-3.11
			c-1.43,0-2.61-0.2-3.54-0.6c-0.94-0.4-1.79-1.18-2.57-2.35c-0.78-1.17-1.29-2.5-1.54-3.98c-0.25-1.49-0.37-3.16-0.37-5.02
			c0-0.42,0-0.95,0-1.59l-0.07-54.33c3.21,0,6.02,0.71,8.45,2.11C264.75,229.38,267.01,231.57,269.1,234.55z"/>
	</g>
	<g>
		<path class="st0" d="M424.55,296.84v-3.11c-1.06-0.21-1.91-0.54-2.57-1c-0.66-0.45-1.18-1.1-1.55-1.95
			c-0.37-0.85-0.64-1.74-0.79-2.67c-0.16-0.93-0.23-2.06-0.23-3.39l0.07-53.37l30.68,43.01c1.78,2.5,2.98,4.46,3.6,5.89
			c0.93,2.07,1.4,4.28,1.4,6.61c0,3.51-1.09,5.68-3.28,6.53c-0.58,0.21-1.16,0.32-1.74,0.32v3.11h20.18v-3.11
			c-0.94-0.1-1.79-0.41-2.57-0.92c-0.78-0.5-1.38-1.18-1.8-2.03c-0.42-0.85-0.7-1.85-0.83-2.99c-0.13-1.14-0.2-2.14-0.2-2.99v-53.06
			c0-1.49,0.1-3.12,0.3-4.9c0.2-1.78,0.7-3.28,1.5-4.5c0.67-1.01,1.4-1.65,2.21-1.91c0.54-0.11,1.07-0.21,1.6-0.32v-3.11h-20.18
			v3.11c1.08,0.16,1.99,0.44,2.74,0.84c0.74,0.4,1.38,1.04,1.93,1.91c0.54,0.88,0.88,1.69,1.01,2.43c0.13,0.75,0.2,1.84,0.2,3.27
			c0,0.21,0,0.53,0,0.96v18.02l-13.43-20.1c-0.45-0.69-0.76-1.25-0.94-1.68c-0.4-0.9-0.6-1.73-0.6-2.47c0-0.53,0.16-1.05,0.47-1.56
			c0.31-0.5,0.63-0.9,0.97-1.2c0.33-0.29,0.72-0.44,1.17-0.44v-3.11h-38.22v3.11c1.65,0.27,2.94,1.01,3.88,2.23
			c0.44,0.58,0.76,1.65,0.94,3.19c0.18,1.54,0.27,3.16,0.27,4.86c0,0.69,0,1.36,0,1.99v48.84c0,2.71-0.2,5.14-0.6,7.29
			c-0.38,2.06-1.01,3.44-1.89,4.16c-0.18-0.13-0.36-0.25-0.55-0.41c-0.53-0.45-1.09-1.24-1.67-2.35c-0.18-0.37-0.42-0.88-0.74-1.51
			l-17.37-62.22c-0.27-0.96-0.42-1.49-0.47-1.59c-0.13-0.53-0.2-1.01-0.2-1.43s0.09-0.85,0.27-1.27c0.4-0.9,1.14-1.35,2.2-1.35
			v-3.51h-29.6v3.03c0.31,0.11,0.61,0.24,0.9,0.4c0.29,0.16,0.58,0.49,0.87,1c0.29,0.51,0.43,1.13,0.43,1.87
			c0,0.53-0.09,1.12-0.27,1.75c-0.18,0.64-0.38,1.28-0.6,1.91l-18.51,56.7c-0.54,1.75-1.09,3.12-1.67,4.11
			c-0.13,0.23-0.29,0.46-0.46,0.7c-0.48-1.15-0.99-2.5-1.53-4.08c-2.41-7.12-4.12-11.71-5.15-13.78c-1.92-3.82-3.75-7.26-5.51-10.32
			c-1.76-3.05-3.82-6.36-6.18-9.92c0.36,0,1.65-0.77,3.88-2.31c2.94-2.07,5.32-4.33,7.15-6.77c2.54-3.45,3.81-7.14,3.81-11.08
			c0-0.42-0.04-1.11-0.13-2.07c-0.4-3.61-1.97-6.37-4.71-8.29c-2.74-1.91-6.72-2.87-11.93-2.87H273.7v3.11c0.94,0,1.74,0.2,2.41,0.6
			c0.67,0.4,1.26,1.13,1.77,2.19c0.51,1.06,0.86,3,1.04,5.82c0.04,0.9,0.07,2.18,0.07,3.82l-0.13,52.18c0,1.81-0.13,3.27-0.4,4.38
			c-0.27,1.12-0.85,2.1-1.74,2.95c-0.67,0.64-1.24,1.08-1.7,1.32c-0.47,0.24-1.08,0.36-1.84,0.36v3.11h31.88v-3.11
			c-1.25-0.32-2.03-0.56-2.34-0.72c-0.67-0.37-1.36-1.09-2.07-2.15c-0.53-0.8-0.9-1.74-1.1-2.83c-0.2-1.09-0.3-2.48-0.3-4.19v-22.49
			l3.54-1.99c1.34,2.18,2.68,4.39,4.04,6.62c1.36,2.23,2.48,4.28,3.38,6.14c3.03,6.49,4.88,10.61,5.55,12.36
			c0.98,2.61,1.47,4.62,1.47,6.06c0,1.06-0.27,1.78-0.8,2.15c-0.98,0.69-2.07,1.12-3.27,1.28v2.87h21.5h12.18h10.01v-2.95
			c-0.85-0.16-1.6-0.46-2.27-0.92c-0.67-0.45-1.27-1.16-1.8-2.11c-0.22-0.42-0.33-1.2-0.33-2.31c0-2.29,0.29-4.38,0.87-6.3
			l4.72-16.2c1.52,0,3.45,0.25,5.79,0.76c2.34,0.5,4.11,1.07,5.32,1.71c3.08,1.64,5.86,4.14,8.36,7.48
			c2.32,3.08,3.63,5.86,3.95,8.36c0.09,0.53,0.13,1.27,0.13,2.23c0,2.87-0.89,4.93-2.67,6.21c-0.58,0.37-1.45,0.69-2.61,0.96v3.1
			h28.84h5.78H424.55z M310.72,245.32c-2.58,2.66-5.57,4.68-8.95,6.06l-2.34,0.88v-20.02c0-1.33,0.17-2.49,0.5-3.47
			c0.33-0.98,0.92-1.69,1.77-2.11c1.51-0.74,3.14-1.12,4.88-1.12c2.54,0,4.63,0.69,6.28,2.07c1.92,1.59,2.87,3.78,2.87,6.54
			C315.74,238.14,314.07,241.86,310.72,245.32z M372,259.29c-1.82-1.12-3.51-1.94-5.07-2.47c-1.56-0.53-2.73-0.82-3.53-0.88
			c-0.8-0.05-1.47-0.08-2-0.08l6.39-22.42l7.48,28.24C374.42,260.94,373.33,260.14,372,259.29z"/>
	</g>
	<g>
		<path class="st0" d="M592.16,297c0.94,0.11,1.78,0.29,2.54,0.56l2.27,0.8l8.69-30.54l-2.27-1.36c-0.76,3.51-2.54,7.15-5.35,10.93
			c-2.5,3.4-5.1,6.03-7.82,7.89c-1.83,1.22-3.84,2.21-6.05,2.95c-2.21,0.75-4.36,1.12-6.45,1.12c-1.92,0-3.61-0.33-5.08-1
			c-1.47-0.66-2.61-1.66-3.41-2.99c-0.8-1.33-1.31-2.6-1.54-3.83c-0.22-1.22-0.33-2.71-0.33-4.47c0-0.32,0-0.74,0-1.28
			c0-0.53,0-1.17,0-1.91v-22.81h8.55c0.98,0,2.18,0.36,3.61,1.08c1.43,0.72,2.7,1.66,3.81,2.83c1.11,1.17,2.12,2.77,3.01,4.79
			c0.71,1.65,1.16,3,1.34,4.07l2.54-0.48l-4.48-30.38l-2,0.72c0,0.27,0,0.67,0,1.2c0,2.29-0.76,4.23-2.26,5.82
			c-0.75,0.75-1.54,1.26-2.36,1.55c-0.82,0.29-1.68,0.44-2.56,0.44h-9.38v-8.69c0-1.65,0.19-3.08,0.57-4.31
			c0.38-1.22,1.04-2.26,1.97-3.11c1.43-1.28,3.63-1.91,6.62-1.91c2.67,0,5.39,0.53,8.15,1.59c2.76,1.06,5.15,2.63,7.15,4.71
			c3.47,3.67,5.72,8.13,6.75,13.4l2.21-1.99l-4.88-26.96c-0.76,0.36-1.36,0.58-1.8,0.68c-0.09,0-0.69,0.1-1.8,0.3
			c-2.14,0.41-4.03,0.61-5.68,0.61c-0.58,0-0.98,0-1.2,0H541.1v3.11c0.98,0,1.74,0.09,2.27,0.28c0.54,0.19,1.07,0.64,1.61,1.36
			c0.53,0.72,0.86,1.44,0.97,2.15c0.11,0.72,0.17,1.77,0.17,3.15c0,0.16,0,0.45,0,0.88v56.62c0,1.65-0.1,2.99-0.3,4.03
			c-0.2,1.04-0.66,2.06-1.37,3.07c-0.54,0.69-0.99,1.16-1.37,1.39c-0.38,0.24-1.24,0.49-2.57,0.76v3.03h48.71
			C590.24,296.84,591.22,296.89,592.16,297z"/>
	</g>
	<g>
		<path class="st0" d="M534.3,261.17c0-1.64,0.1-3,0.3-4.06c0.2-1.06,0.66-2.04,1.37-2.95c1.34-1.8,2.92-2.71,4.75-2.71v-2.71
			h-32.01v2.95c0.22,0,0.58,0,1.07,0c1.29,0,2.45,0.58,3.47,1.75c0.54,0.64,0.9,1.3,1.1,1.99c0.2,0.69,0.3,1.94,0.3,3.74v19.02
			c0,3.13-0.58,5.62-1.74,7.48c-1.38,2.18-3.52,3.26-6.41,3.26c-6.51,0-11.76-3.88-15.77-11.64c-3.43-6.59-5.14-13.9-5.14-21.93
			c0-0.64,0.01-1.17,0.03-1.59c0.02-0.42,0.05-0.88,0.1-1.36c0.62-7.81,2.34-14.2,5.15-19.14c3.38-5.95,8-8.93,13.83-8.93
			c3.74,0,8,1.31,12.76,3.92c1.91,1.07,3.83,2.96,5.75,5.69c2.5,3.52,4.12,6.57,4.88,9.13l1.67-1.04l-2.74-27.43
			c-0.8,0.75-1.58,1.49-2.34,2.23c-0.98,0.64-2.25,0.96-3.81,0.96c-1.38,0-2.9-0.21-4.54-0.64c-3.21-0.8-6.06-1.37-8.55-1.71
			c-2.5-0.34-5.17-0.52-8.02-0.52c-5.26,0-10.09,0.79-14.5,2.35c-4.41,1.57-8.29,4.05-11.63,7.46c-2.49,2.6-4.52,5.5-6.1,8.72v40.31
			c1.1,2.57,2.39,5,3.89,7.28c4.1,6.22,9.11,10.53,15.04,12.92c4.77,1.91,11.16,2.87,19.18,2.87h33.41v-3.03
			c-1.07-0.32-1.88-0.68-2.44-1.07c-0.56-0.4-1.06-1.07-1.5-2.03c-0.45-0.95-0.71-1.88-0.8-2.79c0-1.01,0-2.02,0-3.03V261.17z"/>
	</g>
	<g>
		<path class="st0" d="M151.66,315.06c0.45-0.1,1.01-0.15,1.7-0.15c5,0.8,9.89,1.6,14.68,2.4c4.79,0.8,9.1,1.2,12.94,1.2
			c4.79,0,14.16-1.07,19.42-3.2c6.42-2.6,10.98-6.26,14.88-11c4.74-5.8,7.25-12.77,7.25-20.9c0-6.18-1.38-12.3-4.8-17.51
			c-1.46-2.22-3.38-4.06-5.54-5.57c-3.95-2.76-8.48-4.5-13-6.08c-5.17-1.82-10.3-3.72-15.44-5.63c-3.61-1.35-7.33-2.06-10.14-4.94
			c-4.12-4.23-3-11.12,0.78-15.18c1.76-1.88,4.83-3.35,7.29-3.93c8.96-2.12,15.35,2.05,23.6,10.05c1.94,1.89,4,6.12,4,6.12
			l4.58-25.75c-0.53,0.33-2.72,1.77-3.67,2.5c-1.77,1.37-4.73-0.4-6.48-1.04c-2.37-0.86-4.78-1.59-7.22-2.18
			c-4.92-1.18-9.97-1.75-15.03-1.75c-3.97,0-8.3,0.29-12.16,1.19c-2.84,0.66-5.86,2.09-8.38,3.54c-8.14,4.7-12.04,13.04-13.79,21.93
			c-1.07,5.45-0.77,11.07,1.47,16.2c3.18,7.29,8.81,13.48,16.21,16.53c0,0,25.22,8.4,25.22,8.4c1.82,0.61,3.93,2.39,5.04,3.93
			c4,5.53,2.06,14.74-2.86,19.05c-7.73,6.77-21.64,4.27-29.27-1.46c-4.18-3.15-6.39-7.88-8.18-12.66c-0.1-0.28-2-5.52-1.9-5.52
			c-0.03,0-3.75,0-3.75,0l-2.58,34.86c0.58-0.54,2.95-2.05,3.56-2.55C150.69,315.46,151.22,315.16,151.66,315.06z"/>
	</g>
	<g>
		<path class="st0" d="M671.93,271.49c-2.25-3.92-4.88-8.15-7.9-12.72c0.46,0,2.11-0.99,4.96-2.96c3.76-2.65,6.8-5.55,9.14-8.68
			c3.25-4.43,4.87-9.16,4.87-14.2c0-0.54-0.06-1.43-0.17-2.65c-0.51-4.63-2.52-8.17-6.02-10.62c-3.5-2.45-8.59-3.68-15.25-3.68
			h-59.8v3.99c1.2,0,2.22,0.26,3.07,0.77c0.86,0.51,1.61,1.45,2.26,2.81c0.65,1.36,1.1,3.85,1.32,7.46c0.06,1.16,0.09,2.79,0.09,4.9
			l-0.17,66.9c0,2.31-0.17,4.19-0.51,5.62c-0.34,1.43-1.08,2.69-2.22,3.78c-0.85,0.82-1.58,1.38-2.18,1.69
			c-0.6,0.31-1.38,0.46-2.35,0.46v3.99h40.75v-3.99c-1.59-0.41-2.59-0.71-2.99-0.92c-0.86-0.48-1.74-1.4-2.65-2.76
			c-0.68-1.02-1.15-2.23-1.41-3.63c-0.26-1.4-0.38-3.19-0.38-5.37v-28.83l4.53-2.55c1.71,2.79,3.43,5.62,5.17,8.49
			c1.74,2.86,3.18,5.49,4.31,7.87c3.87,8.32,6.24,13.6,7.09,15.85c1.25,3.34,1.88,5.93,1.88,7.77c0,1.37-0.34,2.29-1.03,2.76
			c-1.25,0.89-2.65,1.43-4.19,1.63v3.68h43.05v-3.47c-1.6-0.34-2.93-0.78-4.02-1.33c-1.48-0.75-3.36-4.46-5.64-11.13
			c-3.08-9.12-5.27-15.01-6.58-17.67C676.53,279.82,674.18,275.41,671.93,271.49z M649.08,252.28c-3.3,3.41-7.12,6-11.45,7.77
			l-2.99,1.12v-25.66c0-1.7,0.21-3.19,0.64-4.45c0.43-1.26,1.18-2.16,2.26-2.71c1.94-0.95,4.01-1.43,6.23-1.43
			c3.25,0,5.92,0.89,8.03,2.66c2.45,2.04,3.67,4.84,3.67,8.38C655.48,243.08,653.35,247.85,649.08,252.28z"/>
	</g>
	<g>
		<path class="st0" d="M291.24,311.35c-0.89,0.67-1.82,1.17-2.77,1.5c-0.96,0.33-1.7,0.52-2.24,0.54c-0.53,0.03-1.14,0.04-1.8,0.04
			h-40.1c-0.13,0-0.78,0-1.94,0c-0.09,0-0.46-0.03-1.1-0.08c-0.65-0.05-1.15-0.16-1.5-0.32c-0.89-0.48-1.63-1.04-2.21-1.69
			l-4.81,27.89l2,0.48c0.4-1.82,1.27-4.02,2.61-6.59c1.11-2.14,2.23-3.78,3.34-4.9c2.23-2.14,4.3-3.66,6.21-4.54
			c1.92-0.88,4.21-1.33,6.88-1.33v57.35c0,2.3-0.09,4.01-0.27,5.13c-0.18,1.12-0.74,2.22-1.67,3.29c-1.56,1.76-3.21,2.65-4.95,2.65
			c-0.4,0-0.71,0.03-0.94,0.08v3.05h36.62v-3.13c-1.43,0-2.61-0.2-3.54-0.6c-0.94-0.4-1.79-1.19-2.57-2.37
			c-0.78-1.18-1.29-2.52-1.54-4.02c-0.25-1.5-0.37-3.19-0.37-5.06c0-0.43,0-0.96,0-1.61l-0.07-54.76c3.21,0,6.03,0.71,8.45,2.13
			c2.43,1.42,4.69,3.63,6.78,6.63c1.87,2.68,3.18,5.63,3.94,8.84l2-0.73L291.24,311.35z"/>
	</g>
	<g>
		<path class="st0" d="M335.52,319.93c0.81,0.16,1.41,0.29,1.81,0.39c1.12,0.36,1.88,0.86,2.28,1.48c0.58,0.93,1,1.95,1.24,3.04
			c0.25,1.09,0.37,3.04,0.37,5.84v7.17h-20.07v-7.4c0-3.58,0.69-6.44,2.08-8.57c0.49-0.73,1.16-1.23,2.01-1.52
			c0.85-0.29,1.54-0.43,2.08-0.43v-3.04h-32.35v3.04c1.03,0.16,1.88,0.4,2.55,0.74c0.67,0.34,1.28,0.94,1.81,1.79
			c0.54,0.86,0.87,1.7,1.01,2.53c0.13,0.83,0.2,2.1,0.2,3.82c0,0.21,0,0.57,0,1.09l0.13,50.96c0,1.71-0.22,3.52-0.67,5.41
			c-0.45,1.9-0.9,3.08-1.34,3.55c-0.85,0.83-1.44,1.34-1.78,1.52c-0.34,0.18-0.95,0.38-1.85,0.58v2.96h32.08v-3.04
			c-1.84,0-3.36-0.8-4.56-2.41c-0.63-0.88-1.02-1.74-1.17-2.57c-0.16-0.83-0.23-1.97-0.23-3.42V345.8h19.93v37.8
			c0,1.25-0.1,2.35-0.3,3.31c-0.2,0.96-0.57,1.83-1.11,2.61c-1.12,1.56-2.62,2.33-4.5,2.33v3.04h32.55v-3.04
			c-1.7,0-3.04-0.57-4.03-1.71c-0.49-0.62-0.86-1.57-1.11-2.84c-0.25-1.27-0.37-2.66-0.37-4.17l-0.13-52.93
			c0-1.71,0.1-3.19,0.3-4.44s0.61-2.39,1.24-3.43c0.63-1.04,1.43-1.71,2.42-2.02c0.58-0.1,1.18-0.23,1.81-0.39v-3.04h-32.35V319.93z
			"/>
	</g>
	<g>
		<path class="st0" d="M371.45,319.93c1.25,0.21,2.21,0.46,2.89,0.74c0.67,0.29,1.18,0.71,1.54,1.29c0.67,1.04,1.1,2.21,1.28,3.5
			c0.18,1.3,0.27,3.06,0.27,5.29v52.62c0,1.3-0.1,2.41-0.3,3.35c-0.2,0.93-0.59,1.79-1.17,2.57c-1.21,1.71-2.71,2.57-4.5,2.57v3.04
			H404v-3.04c-0.85,0-1.61-0.19-2.28-0.58c-0.67-0.39-1.25-0.87-1.75-1.44c-0.49-0.57-0.86-1.49-1.11-2.76
			c-0.25-1.27-0.37-2.66-0.37-4.16v-52.39c0-1.92,0.08-3.49,0.24-4.71c0.16-1.22,0.55-2.32,1.17-3.31c0.45-0.73,0.92-1.26,1.41-1.6
			c0.49-0.34,1.43-0.66,2.82-0.97v-3.04h-32.69V319.93z"/>
	</g>
	<g>
		<path class="st0" d="M468.06,388.97c-0.43-0.83-0.7-1.8-0.84-2.92c-0.13-1.12-0.2-2.09-0.2-2.92v-51.84c0-1.45,0.1-3.05,0.3-4.79
			c0.2-1.74,0.7-3.2,1.51-4.4c0.67-0.99,1.41-1.61,2.21-1.87c0.54-0.1,1.07-0.21,1.61-0.31v-3.04h-20.27v3.04
			c1.09,0.16,2,0.43,2.75,0.82c0.75,0.39,1.39,1.01,1.94,1.87c0.54,0.86,0.88,1.65,1.02,2.38c0.13,0.73,0.2,1.79,0.2,3.2
			c0,0.21,0,0.52,0,0.94v17.61L444.8,327.1c-0.45-0.67-0.76-1.22-0.94-1.63c-0.4-0.88-0.61-1.69-0.61-2.42
			c0-0.52,0.16-1.03,0.47-1.52c0.31-0.49,0.64-0.88,0.97-1.17c0.34-0.29,0.73-0.43,1.18-0.43v-3.04h-38.39v3.04
			c1.66,0.26,2.95,0.99,3.89,2.18c0.45,0.57,0.76,1.61,0.94,3.11c0.18,1.51,0.27,3.09,0.27,4.75c0,0.68,0,1.32,0,1.95v47.71
			c0,2.65-0.2,5.02-0.6,7.12c-0.4,2.1-1.07,3.49-2.01,4.16c-0.54,0.36-0.96,0.58-1.28,0.66c-0.31,0.08-0.9,0.17-1.75,0.27v3.04
			h19.53v-3.04c-1.06-0.21-1.92-0.53-2.58-0.97c-0.66-0.44-1.18-1.08-1.56-1.91c-0.38-0.83-0.64-1.7-0.79-2.61
			c-0.16-0.91-0.23-2.01-0.23-3.31l0.07-52.14l30.82,42.03c1.79,2.44,2.99,4.36,3.62,5.76c0.94,2.02,1.41,4.18,1.41,6.46
			c0,3.43-1.1,5.55-3.29,6.38c-0.58,0.21-1.16,0.31-1.74,0.31v3.04h20.27v-3.04c-0.94-0.1-1.8-0.4-2.58-0.89
			C469.09,390.46,468.49,389.8,468.06,388.97z"/>
	</g>
	<g>
		<path class="st0" d="M591.54,348.6l-16.11-6c-2.82-1.04-4.9-2.39-6.24-4.05c-1.07-1.35-1.61-2.88-1.61-4.6
			c0-1.14,0.16-2.23,0.47-3.27c0.18-0.62,0.47-1.35,0.87-2.18c0.62-1.35,1.59-2.35,2.88-3c1.3-0.65,2.82-0.97,4.56-0.97
			c2.01,0,4.12,0.42,6.31,1.25c2.19,0.83,4.14,1.92,5.84,3.27c2.1,1.66,4.05,4.44,5.84,8.34c0.76,1.61,1.21,2.8,1.34,3.58l2.42-0.86
			l-2.28-25.32c-0.45,0.26-1.07,0.68-1.88,1.25c-1.07,0.62-2.1,1.09-3.09,1.4c-0.13,0.05-0.38,0.08-0.74,0.08
			c-3.04-0.67-6-1.35-8.86-2.03c-2.87-0.67-5.46-1.01-7.79-1.01c-1.79,0-3.49,0.18-5.1,0.54c-6.62,1.56-11.97,4.44-16.04,8.65
			c-4.56,4.73-6.85,10.49-6.85,17.3c0,4.94,1.3,9.14,3.89,12.62c2.37,3.17,5.68,5.56,9.93,7.17l17.72,6.78
			c1.61,0.62,2.9,1.65,3.86,3.08c0.96,1.43,1.44,3.1,1.44,5.03c0,0.83-0.05,1.48-0.13,1.95c-0.54,3.12-2.01,5.53-4.43,7.25
			c-2.42,1.71-5.33,2.57-8.73,2.57c-3.09,0-6.25-0.78-9.5-2.34c-3.25-1.56-6.05-3.79-8.42-6.7c-1.66-2.03-3.11-4.78-4.36-8.26
			c-0.98-2.7-1.54-4.83-1.68-6.39l-2.42,0.31l2.62,32.26c0.49-0.42,1-0.82,1.51-1.21c0.51-0.39,0.96-0.62,1.34-0.7
			c0.38-0.08,0.86-0.12,1.44-0.12c4.25,0.62,8.41,1.25,12.48,1.87c4.07,0.62,7.74,0.94,11.01,0.94c4.07,0,8.35-0.83,12.82-2.49
			c5.46-2.03,9.84-4.88,13.15-8.57c4.03-4.52,6.04-9.95,6.04-16.29c0-5.3-1.2-9.74-3.59-13.32
			C599.12,352.81,595.8,350.21,591.54,348.6z"/>
	</g>
	<g>
		<path class="st0" d="M538.11,388.76c-0.45-0.96-0.71-1.88-0.8-2.79c0-1.01,0-2.02,0-3.03v-23.72c0-1.64,0.1-3,0.3-4.06
			c0.2-1.06,0.66-2.04,1.37-2.95c1.34-1.8,2.92-2.71,4.75-2.71v-2.71h-32.01v2.95c0.22,0,0.58,0,1.07,0c1.29,0,2.45,0.58,3.47,1.75
			c0.54,0.64,0.9,1.3,1.1,1.99c0.2,0.69,0.3,1.94,0.3,3.74v19.02c0,3.13-0.58,5.62-1.74,7.48c-1.38,2.18-3.52,3.26-6.41,3.26
			c-6.51,0-11.76-3.88-15.77-11.64c-3.43-6.59-5.14-13.9-5.14-21.93c0-0.64,0.01-1.17,0.03-1.59c0.02-0.43,0.05-0.88,0.1-1.36
			c0.62-7.82,2.34-14.2,5.15-19.14c3.38-5.95,8-8.93,13.83-8.93c3.74,0,8,1.31,12.76,3.92c1.91,1.07,3.83,2.96,5.75,5.69
			c2.5,3.52,4.12,6.57,4.88,9.13l1.67-1.04l-2.74-27.43c-0.8,0.75-1.58,1.49-2.34,2.23c-0.98,0.64-2.25,0.96-3.81,0.96
			c-1.38,0-2.9-0.21-4.54-0.64c-3.21-0.8-6.06-1.37-8.55-1.71c-2.5-0.35-5.17-0.52-8.02-0.52c-5.26,0-10.09,0.79-14.5,2.35
			c-4.41,1.57-8.29,4.05-11.63,7.46c-2.49,2.6-4.52,5.5-6.1,8.71v40.31c1.1,2.57,2.39,5,3.89,7.28c4.1,6.22,9.11,10.53,15.04,12.92
			c4.77,1.91,11.16,2.87,19.18,2.87h33.41v-3.03c-1.07-0.32-1.88-0.68-2.44-1.07C539.05,390.39,538.55,389.71,538.11,388.76z"/>
	</g>
	<g>
		<rect x="146.53" y="329.86" class="st0" width="80.5" height="7.29"/>
	</g>
	<g>
		<rect x="601.86" y="329.86" class="st0" width="93.5" height="7.29"/>
	</g>
	<g>
		<rect x="146.53" y="198.21" class="st0" width="537.17" height="6.6"/>
	</g>
</g>
</svg>
