<?xml version="1.0" encoding="utf-8"?>
<!-- Generator: Adobe Illustrator 16.0.0, SVG Export Plug-In . SVG Version: 6.00 Build 0)  -->
<!DOCTYPE svg PUBLIC "-//W3C//DTD SVG 1.1//EN" "http://www.w3.org/Graphics/SVG/1.1/DTD/svg11.dtd">
<svg version="1.1" id="Layer_1" xmlns="http://www.w3.org/2000/svg" xmlns:xlink="http://www.w3.org/1999/xlink" x="0px" y="0px"
	 width="1304.493px" height="224.436px" viewBox="0 0 1304.493 224.436" enable-background="new 0 0 1304.493 224.436"
	 xml:space="preserve">
<g>
	<g>
		<path fill="#0BA3D1" d="M668.24,59.45c20.883,0,38.387,18.985,43.238,44.721h-86.475C629.851,78.437,647.363,59.45,668.24,59.45
			L668.24,59.45z M612.347,60.082c-61.588,54.634-93.437,121.932-70.656,150.411c13.502,17.085,43.662,16.455,78.883,1.265
			c14.133,7.385,30.373,11.39,47.666,11.39c47.246,0,87.105-31.224,99.764-74.253h-61.168c-7.59,17.718-22.146,29.747-38.596,29.747
			c-20.875,0-38.389-18.99-43.234-44.728h146.369c0.641-4.854,1.061-9.912,1.061-14.976c0-15.609-3.377-30.379-9.705-43.879
			c11.605-25.949,13.287-48.732,2.322-62.442C750.5-5.737,716.755-3.416,678.158,15.36c-3.379-0.421-6.539-0.636-9.918-0.636
			c-49.984,0-91.533,35.229-101.871,82.062c13.5-14.133,41.338-36.283,55.26-44.722C618.675,54.598,615.507,57.338,612.347,60.082
			L612.347,60.082z M761.251,71.896c-11.809-23.206-32.059-41.351-56.523-50.629c24.256-8.648,44.084-7.808,54.205,5.062
			C767.373,36.666,767.583,52.909,761.251,71.896L761.251,71.896z M566.156,140.033c6.119,30.373,25.52,55.902,51.889,70.249
			c-27.422,9.912-50.201,8.858-61.166-4.854C545.492,191.083,550.126,167.032,566.156,140.033L566.156,140.033z"/>
	</g>
	<g>
		<path fill="#1D7E99" d="M384.994,13.593c56.348,0,102.027,45.674,102.027,102.028c0,56.342-45.682,102.026-102.027,102.026
			c-56.348,0-102.028-45.687-102.028-102.026C282.966,59.26,328.647,13.593,384.994,13.593z"/>
		<path fill="#EB8840" d="M402.438,222.916c51.785-8.354,91.396-53.146,91.396-107.295l-0.99,1.231
			c1.548-10.292,1.275-19.462-0.851-27.46c-0.765,5.926-1.594,9.502-2.433,10.938c-0.007-0.462-0.118-6.641-2.085-15.258
			c-0.937-6.284-2.299-12.196-4.189-17.656c0.458,2.504,0.736,4.59,0.869,6.482c-7.904-21.209-27.366-47.32-75.312-46.71
			c0,0,16.858,1.78,24.803,13.801c0,0-8.114-1.938-14.254,1.036c7.479,2.979,13.961,6.095,19.477,9.343l0.479,0.295
			c1.408,0.852,2.617,1.721,3.895,2.584c10.188,7.153,19.646,17.362,18.925,30.53c-2.199-3.467-5.122-5.737-8.868-6.881
			c4.616,18.092,5.075,33.037,1.342,44.822c-2.562-7.848-4.929-12.554-7.025-14.214c2.929,24.259-1.023,42.193-11.831,53.886
			c2.054-7.137,2.877-12.979,2.412-17.593c-12.701,19.197-27.147,29.122-43.351,29.733c-6.396-0.055-12.44-1.022-18.131-2.897
			c-8.353-2.828-15.909-7.649-22.634-14.492c10.502,0.878,20.089-0.941,28.533-5.247l13.825-9.062l-0.054-0.04
			c1.793-0.676,3.479-0.623,5.128,0.146c3.374-0.466,4.559-2.271,3.429-5.326c-1.636-2.272-4.1-4.338-7.269-6.151
			c-6.922-3.613-14.142-3.043-21.681,1.769c-7.174,4.079-14.08,3.919-20.797-0.426c-4.401-3.035-8.652-7.133-12.762-12.245
			l-1.634-2.415c-0.767,5.794,0.104,13.226,2.706,22.386l0.053,0.127l-0.053-0.113c-2.609-9.16-3.473-16.609-2.706-22.398v-0.058
			c0.196-5.058,2.292-7.848,6.284-8.472l-1.694-0.146l1.707,0.146c4.512,0.411,9.688,1.447,15.524,3.147
			c0.979-5.634-0.308-11.531-3.836-17.576v-0.108c5.481-5.115,10.346-8.834,14.5-11.209c1.844-0.986,2.919-2.485,3.271-4.504
			l0.149-0.109l0.056-0.053l0.203-0.196c1.076-1.606,0.714-2.898-1.123-4.042c-3.842,0.209-7.691-0.053-11.528-0.823l-0.052,0.155
			c-1.588-0.461-3.587-1.869-6.048-4.251l-6.308-6.2l-1.892-1.492v0.2h-0.053l0.053-0.253l-0.36-0.375l0.512-0.361
			c0.87-4.698,2.304-8.737,4.354-12.208l0.461-0.415c2.057-3.415,5.991-7.081,11.78-10.997c-10.76,1.339-20.492,6.191-29.144,14.577
			c-7.179-2.634-15.682-2.075-25.468,1.701l-1.176,0.896l-0.09,0.046l1.279-0.938l0.053-0.058
			c-6.154-2.829-10.303-10.957-12.305-24.24c-7.835,7.762-11.632,21.617-11.38,41.621l-2.244,3.396l-0.578,0.396l-0.116,0.106
			l-0.046,0.049l-0.11,0.224c-1.189,1.866-2.83,4.68-4.896,8.462c-2.973,5.348-3.973,9.837-4.265,13.747l-0.029,0.047l0.017,0.129
			l-0.097,1.03l0.169-0.271c0.02,0.902,0.04,1.812,0.272,2.63l6.353-5.225c-2.304,5.846-3.835,12.04-4.613,18.611l-0.182,3.007
			l-1.994-2.278c0,23.313,7.4,44.871,19.888,62.584l0.375,0.586l0.598,0.711c8.98,12.336,20.446,22.703,33.724,30.368
			c9.545,5.646,19.801,9.604,30.738,11.956l2.252,0.505c2.265,0.438,4.583,0.766,6.911,1.057c1.722,0.227,3.439,0.445,5.182,0.591
			l2.315,0.268l3.285,0.021l3.567,0.181l2.844-0.146l4.689-0.226c2.777-0.192,5.52-0.498,8.237-0.893L402.438,222.916z
			 M338.434,108.988L338.434,108.988z M471.253,90.346l-0.046,0.89l0.033-0.896L471.253,90.346z"/>
	</g>
	<g>
		<path fill="#0BA3D1" d="M105.094,151.84c18.037,0,32.731-14.693,32.731-32.73c0-18.23-14.694-32.924-32.731-32.924
			c-18.231,0-32.924,14.692-32.924,32.924C72.169,137.146,86.862,151.84,105.094,151.84L105.094,151.84z"/>
		<path fill="#E0594C" d="M60.449,107.574c5.21-19.903,23.066-34.598,44.645-34.598h94.299
			c-16.924-34.782-52.819-58.962-94.299-58.962c-31.251,0-59.152,13.577-78.312,34.968L60.449,107.574z"/>
		<path fill="#35B29B" d="M64.727,141.241l-46.685-81.1C6.696,77.068,0,97.158,0,119.108C0,169.7,35.897,211.92,83.515,221.775
			l33.848-58.401c-3.9,1.115-8.182,1.673-12.27,1.673c-17.116,0-31.996-9.298-39.807-23.062
			C65.102,141.8,64.913,141.615,64.727,141.241L64.727,141.241z"/>
		<path fill="#F2AB4C" d="M144.522,142.356L97.65,223.827c2.419,0.188,4.835,0.188,7.443,0.188
			c57.844,0,104.905-47.062,104.905-104.905c0-11.534-1.865-22.508-5.211-32.924h-67.521c8.369,8.369,13.765,19.9,13.765,32.924
			C151.032,127.478,148.616,135.66,144.522,142.356L144.522,142.356z"/>
	</g>
	<g>
		<path fill="#27A6D1" d="M944.998,13.592c-58.223,0-105.418,47.203-105.418,105.419c0,58.218,47.195,105.421,105.418,105.421
			c58.219,0,105.42-47.203,105.42-105.421C1050.417,60.795,1003.214,13.592,944.998,13.592z M944.998,204.665
			c-47.312,0-85.652-38.349-85.652-85.652c0-47.305,38.342-85.653,85.652-85.653c47.307,0,85.654,38.35,85.654,85.653
			C1030.652,166.317,992.302,204.665,944.998,204.665z"/>
		<path fill="#E2584C" d="M999.775,64.227l-40.795,68.76l-27.949-27.957L999.775,64.227z"/>
		<path fill="#E4E6E6" d="M890.222,173.794l68.758-40.8l-27.949-27.958L890.222,173.794z"/>
	</g>
</g>
<g>
	<path fill="#E1584B" d="M1210.823,32.067c28.635,0,40.198,38.873,40.198,87.042c0,47.971-11.562,86.846-40.198,86.846
		c-28.624,0-40.192-38.875-40.192-86.846C1170.631,70.939,1182.199,32.067,1210.823,32.067L1210.823,32.067z M1304.493,119.108
		c0-66.94-40.199-107.14-93.67-107.14c-53.465,0-93.657,40.2-93.657,107.14c0,66.745,40.192,106.948,93.657,106.948
		C1264.293,226.056,1304.493,185.853,1304.493,119.108L1304.493,119.108z"/>
</g>
</svg>
